<svg width="109" height="101" viewBox="0 0 109 101" fill="none" xmlns="http://www.w3.org/2000/svg">
<path opacity="0.2" fill-rule="evenodd" clip-rule="evenodd" d="M89.3098 38C89.3098 38 99.8458 38 102.925 38C106.005 38 109 36.0059 109 32.3118C109 28.6178 105.709 25.7978 101.803 26.5446C101.803 26.5446 101.639 23.9121 99.5987 22.8836C97.5586 21.8552 95.329 22.8836 94.3937 23.6792C94.7128 20.9862 93.4209 17.4461 89.4966 16.2949C85.5724 15.1438 81.6919 17.4431 80.7327 21.7835C80.7327 21.7835 77.2113 18.7518 73.3946 20.1586C69.5779 21.5653 69.8061 26.41 69.8061 26.41C69.8061 26.41 66.6409 26.7929 65.4017 29.9026C64.1624 33.0124 65.7192 38 71.0717 38C76.4241 38 89.3098 38 89.3098 38Z" fill="#C6CBD0"/>
<path opacity="0.15" fill-rule="evenodd" clip-rule="evenodd" d="M18.6351 14C18.6351 14 12.4093 14 10.5896 14C8.76986 14 7 12.731 7 10.3803C7 8.02952 8.94444 6.23495 11.2527 6.71019C11.2527 6.71019 11.3497 5.03495 12.5553 4.38049C13.7608 3.72603 15.0783 4.38049 15.631 4.88676C15.4425 3.17302 16.2058 0.920264 18.5247 0.187693C20.8436 -0.544877 23.1366 0.918363 23.7034 3.68041C23.7034 3.68041 25.7842 1.75117 28.0396 2.64636C30.2949 3.54155 30.16 6.62452 30.16 6.62452C30.16 6.62452 32.0304 6.86819 32.7627 8.84712C33.4949 10.826 32.575 14 29.4122 14C26.2494 14 18.6351 14 18.6351 14Z" fill="#C6CBD0"/>
<path opacity="0.1" fill-rule="evenodd" clip-rule="evenodd" d="M50 101C77.6142 101 100 98.7614 100 96C100 93.2386 77.6142 91 50 91C22.3858 91 0 93.2386 0 96C0 98.7614 22.3858 101 50 101Z" fill="black"/>
<path fill-rule="evenodd" clip-rule="evenodd" d="M37.3636 22.0282C38.0317 19.3488 40.7453 17.7183 43.4247 18.3864L88.0583 29.5148C90.7377 30.1828 92.3682 32.8965 91.7002 35.5759L78.6364 87.9718C77.9684 90.6512 75.2547 92.2818 72.5753 91.6137L27.9417 80.4853C25.2623 79.8172 23.6318 77.1036 24.2998 74.4242L37.3636 22.0282Z" fill="#D8DCDF"/>
<rect x="20" y="27" width="56" height="70" rx="5" fill="#F4F4F6"/>
<path opacity="0.2" fill-rule="evenodd" clip-rule="evenodd" d="M27 45.7032C27 45.3148 27.3148 45 27.7032 45H67.2968C67.6852 45 68 45.3148 68 45.7032V46.2968C68 46.6852 67.6852 47 67.2968 47H27.7032C27.3148 47 27 46.6852 27 46.2968V45.7032Z" fill="#5C6D7E"/>
<path opacity="0.2" fill-rule="evenodd" clip-rule="evenodd" d="M27 57C27 55.8954 27.8954 55 29 55H66C67.1046 55 68 55.8954 68 57V76C68 77.1046 67.1046 78 66 78H29C27.8954 78 27 77.1046 27 76L27 57Z" fill="#5C6D7E"/>
<path fill-rule="evenodd" clip-rule="evenodd" d="M40.7904 72C40.0134 72 39.5414 71.1434 39.9565 70.4865L45.0652 62.403C45.465 61.7704 46.396 61.7959 46.7606 62.4494L49.4151 67.2073C49.5741 67.4924 49.9612 67.5471 50.193 67.3174L51.3034 66.2172C51.7299 65.7946 52.4318 65.8478 52.7897 66.3298L55.8309 70.4255C56.3142 71.0764 55.8496 72 55.0389 72H40.7904Z" fill="white"/>
<path opacity="0.1" fill-rule="evenodd" clip-rule="evenodd" d="M27 49.7032C27 49.3148 27.3148 49 27.7032 49H53.2968C53.6852 49 54 49.3148 54 49.7032V50.2968C54 50.6852 53.6852 51 53.2968 51H27.7032C27.3148 51 27 50.6852 27 50.2968V49.7032Z" fill="#5C6D7E"/>
<path opacity="0.5" fill-rule="evenodd" clip-rule="evenodd" d="M46.2174 84.1135C45.9802 83.8205 45.5065 83.9882 45.5065 84.3652V84.4118C45.0061 84.4118 44.4303 84.5257 43.9599 84.8847C43.579 85.1754 43.2672 85.6268 43.1207 86.3086C43.101 86.4001 43.0843 86.5354 43.0708 86.6745C43.0584 86.8033 43.2302 86.851 43.301 86.7427V86.7427C43.5267 86.3974 43.7812 86.168 44.1262 86.0247C44.4736 85.8805 44.9127 85.8236 45.5065 85.8236V85.8702C45.5065 86.2472 45.9802 86.4149 46.2174 86.1219L47.0303 85.1177L46.2174 84.1135Z" fill="#9EA8B2"/>
<path fill-rule="evenodd" clip-rule="evenodd" d="M28.0773 86.82C28.312 86.94 28.5893 87 28.8667 87H30.285C30.5197 87 30.7117 86.82 30.7117 86.6L31 85C31 84.78 30.808 84.6 30.5733 84.6H29.5067V83.9999C29.5067 83.6599 29.2933 83.1999 28.9733 83.0199C28.824 82.9599 28.6533 83.0399 28.6533 83.1999V83.8199C28.6533 83.9367 28.615 84.0502 28.5442 84.1431L28.12 84.7H27.2667C27.1194 84.7 27 84.8193 27 84.9666V86.7333C27 86.8806 27.1194 87 27.2667 87H27.8973C27.9967 87 28.0773 86.9194 28.0773 86.82V86.82Z" fill="#C5CAD0"/>
<path fill-rule="evenodd" clip-rule="evenodd" d="M35.4444 84.0269C35.199 84.0269 35 84.2258 35 84.4713V86.5556C35 86.8011 35.199 87 35.4444 87H36.2727L36.8488 87.5348C36.9341 87.614 37.0659 87.614 37.1512 87.5348L37.7273 87H38.5556C38.801 87 39 86.8011 39 86.5556V84.4713C39 84.2258 38.801 84.0269 38.5556 84.0269H35.4444Z" fill="#C5CAD0"/>
<rect opacity="0.2" x="37.3813" y="35.1365" width="16.8776" height="2.5" rx="0.703235" fill="#5C6D7E"/>
<path opacity="0.3" fill-rule="evenodd" clip-rule="evenodd" d="M31.1294 40.3235C33.3385 40.3235 35.1294 38.5326 35.1294 36.3235C35.1294 34.1143 33.3385 32.3235 31.1294 32.3235C28.9203 32.3235 27.1294 34.1143 27.1294 36.3235C27.1294 38.5326 28.9203 40.3235 31.1294 40.3235Z" fill="#5C6D7E"/>
<mask id="mask0" mask-type="alpha" maskUnits="userSpaceOnUse" x="27" y="32" width="9" height="9">
<path fill-rule="evenodd" clip-rule="evenodd" d="M31.1294 40.3235C33.3385 40.3235 35.1294 38.5326 35.1294 36.3235C35.1294 34.1143 33.3385 32.3235 31.1294 32.3235C28.9203 32.3235 27.1294 34.1143 27.1294 36.3235C27.1294 38.5326 28.9203 40.3235 31.1294 40.3235Z" fill="white"/>
</mask>
<g mask="url(#mask0)">
<path fill-rule="evenodd" clip-rule="evenodd" d="M32.5448 35.3977C32.5448 36.2148 31.9022 37.0513 31.1095 37.0513C30.3167 37.0513 29.6741 36.2148 29.6741 35.3977C29.6741 34.5805 30.3167 34.0051 31.1095 34.0051C31.9022 34.0051 32.5448 34.5805 32.5448 35.3977ZM29.9128 37.3283C29.2443 37.3313 28.7417 37.8911 28.6916 38.5578L28.5807 40.0355C28.5414 40.5589 28.9554 41.0051 29.4802 41.0051H32.7387C33.2635 41.0051 33.6776 40.5589 33.6383 40.0355L33.5236 38.5078C33.4753 37.8644 33.002 37.3353 32.3568 37.3286C32.3286 37.3284 32.2998 37.3282 32.2707 37.3282C31.8916 37.3282 31.75 37.3794 31.6159 37.4278C31.4952 37.4714 31.3806 37.5128 31.1044 37.5128C30.8129 37.5128 30.6671 37.4667 30.5213 37.4205C30.3755 37.3744 30.2297 37.3282 29.9381 37.3282L29.9128 37.3283Z" fill="white"/>
</g>
<g filter="url(#filter0_d)">
<path fill-rule="evenodd" clip-rule="evenodd" d="M61.7077 67.2358C58.2939 67.2358 56.1691 63.53 57.8936 60.5838L70.6271 38.829C72.374 35.8444 76.7174 35.9321 78.3424 38.9848L89.9231 60.7396C91.4901 63.6833 89.3567 67.2358 86.0219 67.2358H61.7077Z" fill="white"/>
<path fill-rule="evenodd" clip-rule="evenodd" d="M75.929 46.024L75.6215 56.9208H72.5808L72.2847 46.024H75.929ZM76.1796 60.6919C76.1796 61.8739 75.3938 62.6056 74.1069 62.6056C72.8314 62.6056 72.0342 61.8739 72.0342 60.6919C72.0342 59.4987 72.8314 58.767 74.1069 58.767C75.3938 58.767 76.1796 59.4987 76.1796 60.6919Z" fill="#F36C43"/>
</g>
<defs>
<filter id="filter0_d" x="49.2812" y="33.642" width="49.1659" height="46.5938" filterUnits="userSpaceOnUse" color-interpolation-filters="sRGB">
<feFlood flood-opacity="0" result="BackgroundImageFix"/>
<feColorMatrix in="SourceAlpha" type="matrix" values="0 0 0 0 0 0 0 0 0 0 0 0 0 0 0 0 0 0 127 0"/>
<feOffset dy="5"/>
<feGaussianBlur stdDeviation="4"/>
<feColorMatrix type="matrix" values="0 0 0 0 0 0 0 0 0 0 0 0 0 0 0 0 0 0 0.08 0"/>
<feBlend mode="normal" in2="BackgroundImageFix" result="effect1_dropShadow"/>
<feBlend mode="normal" in="SourceGraphic" in2="effect1_dropShadow" result="shape"/>
</filter>
</defs>
</svg>
