<svg width="112" height="101" viewBox="0 0 112 101" fill="none" xmlns="http://www.w3.org/2000/svg">
<path opacity="0.2" fill-rule="evenodd" clip-rule="evenodd" d="M91.0052 58C91.0052 58 81.9059 58 79.2463 58C76.5867 58 74 56.2778 74 53.0875C74 49.8972 76.8419 47.4617 80.2155 48.1067C80.2155 48.1067 80.3573 45.8331 82.1193 44.945C83.8812 44.0568 85.8068 44.945 86.6145 45.632C86.339 43.3062 87.4547 40.2489 90.8438 39.2547C94.233 38.2605 97.5842 40.2464 98.4127 43.9948C98.4127 43.9948 101.454 41.3766 104.75 42.5915C108.046 43.8064 107.849 47.9904 107.849 47.9904C107.849 47.9904 110.583 48.3211 111.653 51.0068C112.723 53.6925 111.379 58 106.756 58C102.134 58 91.0052 58 91.0052 58Z" fill="#C6CBD0"/>
<path opacity="0.15" fill-rule="evenodd" clip-rule="evenodd" d="M21.6351 14C21.6351 14 15.4093 14 13.5896 14C11.7699 14 10 12.731 10 10.3803C10 8.02952 11.9444 6.23495 14.2527 6.71019C14.2527 6.71019 14.3497 5.03495 15.5553 4.38049C16.7608 3.72603 18.0783 4.38049 18.631 4.88676C18.4425 3.17302 19.2058 0.920264 21.5247 0.187693C23.8436 -0.544877 26.1366 0.918363 26.7034 3.68041C26.7034 3.68041 28.7842 1.75117 31.0396 2.64636C33.2949 3.54155 33.16 6.62452 33.16 6.62452C33.16 6.62452 35.0304 6.86819 35.7627 8.84712C36.4949 10.826 35.575 14 32.4122 14C29.2494 14 21.6351 14 21.6351 14Z" fill="#C6CBD0"/>
<path opacity="0.1" fill-rule="evenodd" clip-rule="evenodd" d="M50 101C77.6142 101 100 98.7614 100 96C100 93.2386 77.6142 91 50 91C22.3858 91 0 93.2386 0 96C0 98.7614 22.3858 101 50 101Z" fill="black"/>
<path fill-rule="evenodd" clip-rule="evenodd" d="M37.3636 22.0282C38.0317 19.3488 40.7453 17.7183 43.4247 18.3863L88.0583 29.5147C90.7377 30.1828 92.3682 32.8964 91.7002 35.5758L78.6364 87.9718C77.9684 90.6512 75.2547 92.2817 72.5753 91.6136L27.9417 80.4852C25.2623 79.8172 23.6318 77.1035 24.2998 74.4241L37.3636 22.0282Z" fill="#D8DCDF"/>
<rect x="20" y="27" width="56" height="70" rx="5" fill="#F4F4F6"/>
<rect opacity="0.2" x="36" y="46" width="32" height="3" rx="0.703235" fill="#5C6D7E"/>
<path opacity="0.6" fill-rule="evenodd" clip-rule="evenodd" d="M28.8129 46.8782C29.0501 46.5852 29.5238 46.7529 29.5238 47.1298V47.1765C30.0242 47.1765 30.6 47.2904 31.0704 47.6493C31.4513 47.94 31.763 48.3914 31.9096 49.0732C31.9292 49.1647 31.9459 49.3 31.9594 49.4392C31.9719 49.568 31.8 49.6157 31.7293 49.5074V49.5074C31.5036 49.162 31.2491 48.9326 30.904 48.7894C30.5567 48.6451 30.1176 48.5882 29.5238 48.5882V48.6349C29.5238 49.0118 29.0501 49.1795 28.8129 48.8865L28 47.8824L28.8129 46.8782Z" fill="#9EA8B2"/>
<path opacity="0.6" fill-rule="evenodd" clip-rule="evenodd" d="M28.8129 77.8782C29.0501 77.5852 29.5238 77.7529 29.5238 78.1298V78.1765C30.0242 78.1765 30.6 78.2904 31.0704 78.6493C31.4513 78.94 31.763 79.3914 31.9096 80.0732C31.9292 80.1647 31.9459 80.3 31.9594 80.4392C31.9719 80.568 31.8 80.6157 31.7293 80.5074V80.5074C31.5036 80.162 31.2491 79.9326 30.904 79.7894C30.5567 79.6451 30.1176 79.5882 29.5238 79.5882V79.6349C29.5238 80.0118 29.0501 80.1795 28.8129 79.8865L28 78.8824L28.8129 77.8782Z" fill="#9EA8B2"/>
<rect opacity="0.1" x="36" y="52" width="16" height="3" rx="0.703235" fill="#5C6D7E"/>
<rect opacity="0.2" x="36.3809" y="36.1364" width="16.8776" height="2.81294" rx="0.703235" fill="#5C6D7E"/>
<path opacity="0.3" fill-rule="evenodd" clip-rule="evenodd" d="M30.0967 41.0647C32.3058 41.0647 34.0967 39.2738 34.0967 37.0647C34.0967 34.8556 32.3058 33.0647 30.0967 33.0647C27.8875 33.0647 26.0967 34.8556 26.0967 37.0647C26.0967 39.2738 27.8875 41.0647 30.0967 41.0647Z" fill="#5C6D7E"/>
<mask id="mask0" mask-type="alpha" maskUnits="userSpaceOnUse" x="26" y="33" width="9" height="9">
<path fill-rule="evenodd" clip-rule="evenodd" d="M30.0967 41.0647C32.3058 41.0647 34.0967 39.2738 34.0967 37.0647C34.0967 34.8556 32.3058 33.0647 30.0967 33.0647C27.8875 33.0647 26.0967 34.8556 26.0967 37.0647C26.0967 39.2738 27.8875 41.0647 30.0967 41.0647Z" fill="white"/>
</mask>
<g mask="url(#mask0)">
<path fill-rule="evenodd" clip-rule="evenodd" d="M31.5116 36.1389C31.5116 36.956 30.869 37.7925 30.0763 37.7925C29.2835 37.7925 28.6409 36.956 28.6409 36.1389C28.6409 35.3217 29.2835 34.7463 30.0763 34.7463C30.869 34.7463 31.5116 35.3217 31.5116 36.1389ZM28.8796 38.0695C28.2111 38.0725 27.7085 38.6323 27.6584 39.299L27.5475 40.7768C27.5082 41.3001 27.9222 41.7463 28.447 41.7463H31.7055C32.2303 41.7463 32.6444 41.3001 32.6051 40.7768L32.4904 39.249C32.4421 38.6056 31.9688 38.0765 31.3236 38.0699C31.2954 38.0696 31.2666 38.0694 31.2375 38.0694C30.8584 38.0694 30.7168 38.1206 30.5827 38.169C30.462 38.2126 30.3474 38.254 30.0712 38.254C29.7797 38.254 29.6339 38.2079 29.4881 38.1617C29.3423 38.1156 29.1965 38.0694 28.9049 38.0694L28.8796 38.0695Z" fill="white"/>
</g>
<rect opacity="0.2" x="36" y="77" width="32" height="3" rx="0.703235" fill="#5C6D7E"/>
<rect opacity="0.1" x="36" y="83" width="16" height="3" rx="0.703235" fill="#5C6D7E"/>
<rect opacity="0.2" x="36.3809" y="67.1364" width="16.8776" height="2.81294" rx="0.703235" fill="#5C6D7E"/>
<path opacity="0.3" fill-rule="evenodd" clip-rule="evenodd" d="M30.0967 72.0647C32.3058 72.0647 34.0967 70.2738 34.0967 68.0647C34.0967 65.8556 32.3058 64.0647 30.0967 64.0647C27.8875 64.0647 26.0967 65.8556 26.0967 68.0647C26.0967 70.2738 27.8875 72.0647 30.0967 72.0647Z" fill="#5C6D7E"/>
<mask id="mask1" mask-type="alpha" maskUnits="userSpaceOnUse" x="26" y="64" width="9" height="9">
<path fill-rule="evenodd" clip-rule="evenodd" d="M30.0967 72.0647C32.3058 72.0647 34.0967 70.2738 34.0967 68.0647C34.0967 65.8556 32.3058 64.0647 30.0967 64.0647C27.8875 64.0647 26.0967 65.8556 26.0967 68.0647C26.0967 70.2738 27.8875 72.0647 30.0967 72.0647Z" fill="white"/>
</mask>
<g mask="url(#mask1)">
<path fill-rule="evenodd" clip-rule="evenodd" d="M31.5116 67.1389C31.5116 67.956 30.869 68.7925 30.0763 68.7925C29.2835 68.7925 28.6409 67.956 28.6409 67.1389C28.6409 66.3217 29.2835 65.7463 30.0763 65.7463C30.869 65.7463 31.5116 66.3217 31.5116 67.1389ZM28.8796 69.0695C28.2111 69.0725 27.7085 69.6323 27.6584 70.299L27.5475 71.7768C27.5082 72.3001 27.9222 72.7463 28.447 72.7463H31.7055C32.2303 72.7463 32.6444 72.3001 32.6051 71.7768L32.4904 70.249C32.4421 69.6056 31.9688 69.0765 31.3236 69.0699C31.2954 69.0696 31.2666 69.0694 31.2375 69.0694C30.8584 69.0694 30.7168 69.1206 30.5827 69.169C30.462 69.2126 30.3474 69.254 30.0712 69.254C29.7797 69.254 29.6339 69.2079 29.4881 69.1617C29.3423 69.1156 29.1965 69.0694 28.9049 69.0694L28.8796 69.0695Z" fill="white"/>
</g>
<path opacity="0.5" fill-rule="evenodd" clip-rule="evenodd" d="M61 2C59.3431 2 58 3.34315 58 5V12.1078C58 13.7646 59.3431 15.1078 61 15.1078H62.5787L66.1468 19.2386C66.4405 19.5786 66.9986 19.3709 66.9986 18.9217V15.5078C66.9986 15.2869 67.1777 15.1078 67.3986 15.1078H79.2376C80.8944 15.1078 82.2376 13.7646 82.2376 12.1078V5C82.2376 3.34315 80.8944 2 79.2376 2L61 2Z" fill="#C8CDD2"/>
<path fill-rule="evenodd" clip-rule="evenodd" d="M94.874 10.1604C96.5309 10.1604 97.874 11.5035 97.874 13.1604V20.9741C97.874 22.6309 96.5309 23.9741 94.874 23.9741H93.2953L89.7272 28.1049C89.4336 28.4449 88.8754 28.2372 88.8754 27.788V24.4741C88.8754 24.1979 88.6516 23.9741 88.3754 23.9741H76.6365C74.9796 23.9741 73.6365 22.6309 73.6365 20.9741V13.1604C73.6365 11.5035 74.9796 10.1604 76.6365 10.1604L94.874 10.1604Z" fill="#C8CDD2"/>
<g filter="url(#filter0_d)">
<path fill-rule="evenodd" clip-rule="evenodd" d="M61.7077 67.2358C58.2939 67.2358 56.1691 63.53 57.8936 60.5838L70.6271 38.829C72.374 35.8444 76.7174 35.9321 78.3424 38.9848L89.9231 60.7396C91.4901 63.6833 89.3567 67.2358 86.0219 67.2358H61.7077Z" fill="white"/>
<path fill-rule="evenodd" clip-rule="evenodd" d="M75.929 46.024L75.6215 56.9207H72.5808L72.2847 46.024H75.929ZM76.1796 60.6918C76.1796 61.8738 75.3938 62.6055 74.1069 62.6055C72.8314 62.6055 72.0342 61.8738 72.0342 60.6918C72.0342 59.4986 72.8314 58.7669 74.1069 58.7669C75.3938 58.7669 76.1796 59.4986 76.1796 60.6918Z" fill="#F36C43"/>
</g>
<defs>
<filter id="filter0_d" x="49.2812" y="33.642" width="49.1659" height="46.5938" filterUnits="userSpaceOnUse" color-interpolation-filters="sRGB">
<feFlood flood-opacity="0" result="BackgroundImageFix"/>
<feColorMatrix in="SourceAlpha" type="matrix" values="0 0 0 0 0 0 0 0 0 0 0 0 0 0 0 0 0 0 127 0"/>
<feOffset dy="5"/>
<feGaussianBlur stdDeviation="4"/>
<feColorMatrix type="matrix" values="0 0 0 0 0 0 0 0 0 0 0 0 0 0 0 0 0 0 0.08 0"/>
<feBlend mode="normal" in2="BackgroundImageFix" result="effect1_dropShadow"/>
<feBlend mode="normal" in="SourceGraphic" in2="effect1_dropShadow" result="shape"/>
</filter>
</defs>
</svg>
