<svg width="105" height="101" viewBox="0 0 105 101" fill="none" xmlns="http://www.w3.org/2000/svg">
<path opacity="0.2" fill-rule="evenodd" clip-rule="evenodd" d="M19.6902 38C19.6902 38 9.15425 38 6.0747 38C2.99516 38 0 36.0059 0 32.3118C0 28.6178 3.29059 25.7978 7.19691 26.5446C7.19691 26.5446 7.3611 23.9121 9.40125 22.8836C11.4414 21.8552 13.671 22.8836 14.6063 23.6792C14.2872 20.9862 15.5791 17.4461 19.5034 16.2949C23.4276 15.1438 27.3081 17.4431 28.2673 21.7835C28.2673 21.7835 31.7887 18.7518 35.6054 20.1586C39.4221 21.5653 39.1939 26.41 39.1939 26.41C39.1939 26.41 42.3591 26.7929 43.5983 29.9026C44.8376 33.0124 43.2808 38 37.9283 38C32.5759 38 19.6902 38 19.6902 38Z" fill="#C6CBD0"/>
<path opacity="0.15" fill-rule="evenodd" clip-rule="evenodd" d="M84.6351 14C84.6351 14 78.4093 14 76.5896 14C74.7699 14 73 12.731 73 10.3803C73 8.02952 74.9444 6.23495 77.2527 6.71019C77.2527 6.71019 77.3497 5.03495 78.5553 4.38049C79.7608 3.72603 81.0783 4.38049 81.631 4.88676C81.4425 3.17302 82.2058 0.920264 84.5247 0.187693C86.8436 -0.544877 89.1366 0.918363 89.7034 3.68041C89.7034 3.68041 91.7842 1.75117 94.0396 2.64636C96.2949 3.54155 96.16 6.62452 96.16 6.62452C96.16 6.62452 98.0304 6.86819 98.7627 8.84712C99.4949 10.826 98.575 14 95.4122 14C92.2494 14 84.6351 14 84.6351 14Z" fill="#C6CBD0"/>
<path opacity="0.1" fill-rule="evenodd" clip-rule="evenodd" d="M55 100.306C82.6142 100.306 105 98.0673 105 95.3058C105 92.5444 82.6142 90.3058 55 90.3058C27.3858 90.3058 5 92.5444 5 95.3058C5 98.0673 27.3858 100.306 55 100.306Z" fill="black"/>
<path fill-rule="evenodd" clip-rule="evenodd" d="M42.3831 23.6562C43.1348 20.6414 46.1881 18.8068 49.2029 19.5585L92.873 30.4467C95.8878 31.1983 97.7225 34.2517 96.9708 37.2664L83.8896 89.732C83.138 92.7468 80.0846 94.5814 77.0699 93.8298L33.3997 82.9416C30.3849 82.1899 28.5503 79.1366 29.302 76.1218L42.3831 23.6562Z" fill="#D8DCDF"/>
<rect x="24.0972" y="26.0647" width="56.2588" height="70.3235" rx="5.62588" fill="#F4F4F6"/>
<rect opacity="0.2" x="31.1294" y="62.6329" width="32.3488" height="4" rx="0.703235" fill="#5C6D7E"/>
<rect opacity="0.1" x="31.1294" y="69.6653" width="16" height="4" rx="0.703235" fill="#5C6D7E"/>
<rect opacity="0.2" x="42.3813" y="85.1364" width="16.8776" height="2.5" rx="0.703235" fill="#5C6D7E"/>
<path opacity="0.3" fill-rule="evenodd" clip-rule="evenodd" d="M35.0972 90.0647C37.3063 90.0647 39.0972 88.2738 39.0972 86.0647C39.0972 83.8556 37.3063 82.0647 35.0972 82.0647C32.888 82.0647 31.0972 83.8556 31.0972 86.0647C31.0972 88.2738 32.888 90.0647 35.0972 90.0647Z" fill="#5C6D7E"/>
<mask id="mask0" mask-type="alpha" maskUnits="userSpaceOnUse" x="31" y="82" width="9" height="9">
<path fill-rule="evenodd" clip-rule="evenodd" d="M35.0972 90.0647C37.3063 90.0647 39.0972 88.2738 39.0972 86.0647C39.0972 83.8556 37.3063 82.0647 35.0972 82.0647C32.888 82.0647 31.0972 83.8556 31.0972 86.0647C31.0972 88.2738 32.888 90.0647 35.0972 90.0647Z" fill="white"/>
</mask>
<g mask="url(#mask0)">
<path fill-rule="evenodd" clip-rule="evenodd" d="M36.5126 85.1389C36.5126 85.956 35.87 86.7925 35.0772 86.7925C34.2845 86.7925 33.6419 85.956 33.6419 85.1389C33.6419 84.3217 34.2845 83.7463 35.0772 83.7463C35.87 83.7463 36.5126 84.3217 36.5126 85.1389ZM33.8806 87.0695C33.212 87.0725 32.7094 87.6323 32.6594 88.299L32.5484 89.7768C32.5091 90.3001 32.9232 90.7463 33.4479 90.7463H36.7065C37.2313 90.7463 37.6453 90.3001 37.606 89.7768L37.4913 88.249C37.443 87.6056 36.9698 87.0765 36.3246 87.0699C36.2963 87.0696 36.2676 87.0694 36.2384 87.0694C35.8593 87.0694 35.7178 87.1206 35.5837 87.169C35.463 87.2126 35.3484 87.254 35.0722 87.254C34.7806 87.254 34.6349 87.2079 34.4891 87.1617C34.3433 87.1156 34.1975 87.0694 33.9059 87.0694L33.8806 87.0695Z" fill="white"/>
</g>
<path opacity="0.3" fill-rule="evenodd" clip-rule="evenodd" d="M24.0972 31.6906C24.0972 28.5835 26.616 26.0647 29.723 26.0647H74.7301C77.8372 26.0647 80.356 28.5835 80.356 31.6906V57.007H24.0972V31.6906Z" fill="#5C6D7E"/>
<path fill-rule="evenodd" clip-rule="evenodd" d="M41.8398 49.7117C40.7441 49.7117 40.0692 48.5142 40.6366 47.5768L47.9769 35.452C48.5415 34.5193 49.9066 34.5559 50.4205 35.5174L54.1901 42.5711C54.415 42.9918 54.9844 43.0714 55.316 42.7284L56.862 41.1292C57.4736 40.4966 58.5093 40.5746 59.0193 41.2916L63.428 47.49C64.0903 48.4212 63.4246 49.7117 62.2819 49.7117H41.8398Z" fill="white"/>
<g filter="url(#filter0_d)">
<path fill-rule="evenodd" clip-rule="evenodd" d="M65.9665 76.1282C62.5527 76.1282 60.4278 72.4224 62.1523 69.4762L74.8859 47.7214C76.6328 44.7368 80.9762 44.8245 82.6012 47.8772L94.1819 69.632C95.7489 72.5757 93.6155 76.1282 90.2807 76.1282H65.9665Z" fill="white"/>
<path fill-rule="evenodd" clip-rule="evenodd" d="M80.1873 54.9164L79.8798 65.8131H76.8391L76.543 54.9164H80.1873ZM80.4379 69.5842C80.4379 70.7662 79.6521 71.4979 78.3652 71.4979C77.0897 71.4979 76.2925 70.7662 76.2925 69.5842C76.2925 68.391 77.0897 67.6593 78.3652 67.6593C79.6521 67.6593 80.4379 68.391 80.4379 69.5842Z" fill="#F36C43"/>
</g>
<defs>
<filter id="filter0_d" x="53.5405" y="42.5344" width="49.1659" height="46.5938" filterUnits="userSpaceOnUse" color-interpolation-filters="sRGB">
<feFlood flood-opacity="0" result="BackgroundImageFix"/>
<feColorMatrix in="SourceAlpha" type="matrix" values="0 0 0 0 0 0 0 0 0 0 0 0 0 0 0 0 0 0 127 0"/>
<feOffset dy="5"/>
<feGaussianBlur stdDeviation="4"/>
<feColorMatrix type="matrix" values="0 0 0 0 0 0 0 0 0 0 0 0 0 0 0 0 0 0 0.08 0"/>
<feBlend mode="normal" in2="BackgroundImageFix" result="effect1_dropShadow"/>
<feBlend mode="normal" in="SourceGraphic" in2="effect1_dropShadow" result="shape"/>
</filter>
</defs>
</svg>
