<svg width="117" height="104" viewBox="0 0 117 104" fill="none" xmlns="http://www.w3.org/2000/svg">
<path opacity="0.15" fill-rule="evenodd" clip-rule="evenodd" d="M46.2323 17C46.2323 17 54.1343 17 56.444 17C58.7536 17 61 15.4591 61 12.6046C61 9.75013 58.5321 7.57101 55.6023 8.14809C55.6023 8.14809 55.4792 6.11387 53.9491 5.31917C52.4189 4.52447 50.7467 5.31917 50.0453 5.93392C50.2846 3.85295 49.3157 1.11746 46.3725 0.227913C43.4293 -0.661637 40.5189 1.11516 39.7995 4.46907C39.7995 4.46907 37.1585 2.12642 34.2959 3.21344C31.4334 4.30046 31.6046 8.04406 31.6046 8.04406C31.6046 8.04406 29.2307 8.33995 28.3013 10.7429C27.3718 13.1459 28.5394 17 32.5538 17C36.5681 17 46.2323 17 46.2323 17Z" fill="#C6CBD0"/>
<path opacity="0.3" fill-rule="evenodd" clip-rule="evenodd" d="M92.1377 60C92.1377 60 81.3623 60 78.2128 60C75.0632 60 72 57.9152 72 54.0533C72 50.1914 75.3654 47.2431 79.3605 48.0239C79.3605 48.0239 79.5284 45.2717 81.6149 44.1965C83.7014 43.1213 85.9817 44.1965 86.9383 45.0282C86.6119 42.2128 87.9332 38.5119 91.9466 37.3084C95.9601 36.1048 99.9287 38.5087 100.91 43.0464C100.91 43.0464 104.511 39.8769 108.415 41.3476C112.318 42.8183 112.085 47.8831 112.085 47.8831C112.085 47.8831 115.322 48.2835 116.589 51.5346C117.857 54.7856 116.264 60 110.79 60C105.316 60 92.1377 60 92.1377 60Z" fill="#C6CBD0"/>
<path fill-rule="evenodd" clip-rule="evenodd" d="M66.1724 40.553C66.1724 34.7247 61.4476 30 55.6194 30H21.5529C15.7247 30 11 34.7247 11 40.553V76.1995C11 78.4456 13.6277 79.6643 15.3423 78.2135L25.5929 69.5401C26.0692 69.137 26.673 68.9158 27.297 68.9158H37.1523V62.1505C37.1523 54.8652 43.0582 48.9593 50.3435 48.9593H66.1724V40.553Z" fill="#C6CBD1"/>
<path opacity="0.1" fill-rule="evenodd" clip-rule="evenodd" d="M50 104C77.6142 104 100 101.761 100 99C100 96.2386 77.6142 94 50 94C22.3858 94 0 96.2386 0 99C0 101.761 22.3858 104 50 104Z" fill="black"/>
<path fill-rule="evenodd" clip-rule="evenodd" d="M35.8276 58.7138C35.8276 52.8855 40.5524 48.1608 46.3806 48.1608H80.4471C86.2753 48.1608 91 52.8855 91 58.7137V94.3602C91 96.6063 88.3723 97.8251 86.6577 96.3743L76.4071 87.7008C75.9308 87.2978 75.327 87.0766 74.703 87.0766H46.3806C40.5524 87.0766 35.8276 82.3519 35.8276 76.5236V58.7138Z" fill="#F4F4F6"/>
<rect opacity="0.2" x="48.2095" y="59.6279" width="30.0919" height="3.92503" rx="0.654172" fill="#5C6D7E"/>
<rect opacity="0.1" x="48.2095" y="69.03" width="15.7001" height="3.92503" rx="0.654172" fill="#5C6D7E"/>
<g filter="url(#filter0_d)">
<path fill-rule="evenodd" clip-rule="evenodd" d="M28.7674 64.2358C25.3405 64.2358 23.2175 60.5044 24.9682 57.5585L37.6337 36.2463C39.3869 33.2963 43.6868 33.3828 45.3199 36.4009L56.8518 57.7131C58.4451 60.6577 56.3129 64.2358 52.9648 64.2358H28.7674Z" fill="white"/>
<path fill-rule="evenodd" clip-rule="evenodd" d="M42.764 43.1835L42.4565 54.0802H39.4158L39.1197 43.1835H42.764ZM43.0145 57.8513C43.0145 59.0333 42.2287 59.765 40.9418 59.765C39.6663 59.765 38.8691 59.0333 38.8691 57.8513C38.8691 56.6581 39.6663 55.9264 40.9418 55.9264C42.2287 55.9264 43.0145 56.6581 43.0145 57.8513Z" fill="#F36C43"/>
</g>
<defs>
<filter id="filter0_d" x="16.3413" y="31.0846" width="49.0493" height="46.1512" filterUnits="userSpaceOnUse" color-interpolation-filters="sRGB">
<feFlood flood-opacity="0" result="BackgroundImageFix"/>
<feColorMatrix in="SourceAlpha" type="matrix" values="0 0 0 0 0 0 0 0 0 0 0 0 0 0 0 0 0 0 127 0"/>
<feOffset dy="5"/>
<feGaussianBlur stdDeviation="4"/>
<feColorMatrix type="matrix" values="0 0 0 0 0 0 0 0 0 0 0 0 0 0 0 0 0 0 0.08 0"/>
<feBlend mode="normal" in2="BackgroundImageFix" result="effect1_dropShadow"/>
<feBlend mode="normal" in="SourceGraphic" in2="effect1_dropShadow" result="shape"/>
</filter>
</defs>
</svg>
