<?xml version="1.0" encoding="UTF-8"?>
<svg width="488px" height="451px" viewBox="0 0 488 451" version="1.1" xmlns="http://www.w3.org/2000/svg" xmlns:xlink="http://www.w3.org/1999/xlink">
    <title>upload</title>
    <defs>
        <filter id="filter-1">
            <feColorMatrix in="SourceGraphic" type="matrix" values="0 0 0 0 0.643942 0 0 0 0 0.668186 0 0 0 0 0.706975 0 0 0 1.000000 0"></feColorMatrix>
        </filter>
    </defs>
    <g id="Page-1" stroke="none" stroke-width="1" fill="none" fill-rule="evenodd">
        <g filter="url(#filter-1)" id="upload">
            <g transform="translate(1.000000, 1.000000)">
                <path d="M395.5,117.8 C390.3,86.9 375,58.7 351.6,37.3 C325.6,13.5 291.8,0.4 256.6,0.4 C229.4,0.4 202.9,8.2 180.2,22.9 C161.3,35.1 145.6,51.6 134.5,71 C129.7,70.1 124.7,69.6 119.7,69.6 C77.2,69.6 42.6,104.2 42.6,146.7 C42.6,152.2 43.2,157.5 44.2,162.7 C16.7,182.7 0,214.9 0,249.2 C0,276.9 10.3,303.8 29.1,325.1 C48.4,346.9 73.9,359.8 101.1,361.3 C101.4,361.3 101.6,361.3 101.9,361.3 L187.9,361.3 C195.4,361.3 201.4,355.3 201.4,347.8 C201.4,340.3 195.4,334.3 187.9,334.3 L102.3,334.3 C61.4,331.8 27,292.9 27,249.1 C27,220.8 42.2,194.4 66.7,180.1 C72.4,176.8 74.8,169.9 72.6,163.7 C70.6,158.3 69.6,152.6 69.6,146.5 C69.6,118.9 92.1,96.4 119.7,96.4 C125.6,96.4 131.4,97.4 136.8,99.4 C143.4,101.8 150.7,98.8 153.7,92.5 C172.4,52.8 212.8,27.2 256.7,27.2 C315.7,27.2 364.4,71.4 370,130 C370.6,136.1 375.2,141 381.2,142 C425.7,149.6 459.3,190.7 459.3,237.6 C459.3,287.3 420.2,330.5 372,334.2 L298.3,334.2 C290.8,334.2 284.8,340.2 284.8,347.7 C284.8,355.2 290.8,361.2 298.3,361.2 L372.5,361.2 C372.8,361.2 373.1,361.2 373.5,361.2 C404,359 432.5,345 453.7,321.6 C474.8,298.4 486.3,268.6 486.3,237.6 C486.2,181.5 447.9,131.6 395.5,117.8 Z" id="Path" stroke="#979797" fill="#000000" fill-rule="nonzero"></path>
                <path d="M324.2,262 C329.5,256.7 329.5,248.2 324.2,242.9 L252.7,171.4 C250.2,168.9 246.7,167.4 243.2,167.4 C239.7,167.4 236.2,168.8 233.7,171.4 L162.2,242.9 C156.9,248.2 156.9,256.7 162.2,262 C164.8,264.6 168.3,266 171.7,266 C175.1,266 178.6,264.7 181.2,262 L229.7,213.5 L229.7,436.4 C229.7,443.9 235.7,449.9 243.2,449.9 C250.7,449.9 256.7,443.9 256.7,436.4 L256.7,213.5 L305.2,262 C310.4,267.3 318.9,267.3 324.2,262 Z" id="Path" fill="#000000" fill-rule="nonzero"></path>
            </g>
        </g>
    </g>
</svg>