<?xml version="1.0" encoding="UTF-8"?>
<svg xmlns="http://www.w3.org/2000/svg" xmlns:xlink="http://www.w3.org/1999/xlink" width="488pt" height="352pt" viewBox="0 0 488 352" version="1.1">
<g id="surface1">
<path style=" stroke:none;fill-rule:nonzero;fill:#9EA8B3;fill-opacity:1;" d="M 249.675781 164.203125 L 250.746094 165.148438 L 297.738281 212.164062 C 302.167969 216.597656 302.167969 223.789062 297.738281 228.222656 C 293.644531 232.316406 287.207031 232.628906 282.757812 229.167969 L 281.6875 228.222656 L 254.066406 200.582031 L 254.070312 328.675781 C 254.070312 334.945312 248.988281 340.03125 242.71875 340.03125 C 236.898438 340.03125 232.101562 335.644531 231.449219 330 L 231.371094 328.675781 L 231.367188 200.582031 L 203.753906 228.222656 C 199.664062 232.316406 193.226562 232.628906 188.773438 229.167969 L 187.703125 228.222656 C 183.613281 224.128906 183.296875 217.6875 186.761719 213.234375 L 187.703125 212.164062 L 234.695312 165.148438 C 238.785156 161.054688 245.222656 160.738281 249.675781 164.203125 Z M 245.429688 13.570312 C 322.3125 13.570312 384.992188 75.136719 386.847656 151.617188 L 386.890625 155.101562 L 386.882812 165.476562 L 387.738281 165.488281 C 433.625 166.925781 470.738281 204.0625 472.175781 249.972656 L 472.21875 252.738281 C 472.21875 299.914062 434.542969 338.519531 387.738281 339.988281 L 384.972656 340.03125 L 329.460938 340.03125 C 323.191406 340.03125 318.113281 334.945312 318.113281 328.675781 C 318.113281 322.851562 322.492188 318.050781 328.136719 317.398438 L 329.460938 317.320312 L 384.972656 317.320312 C 420.515625 317.320312 449.523438 288.296875 449.523438 252.738281 C 449.523438 218.003906 421.847656 189.507812 387.441406 188.203125 L 384.972656 188.15625 L 375.539062 188.15625 C 369.722656 188.15625 364.925781 183.769531 364.269531 178.125 L 364.191406 176.800781 L 364.191406 155.101562 C 364.191406 89.558594 310.941406 36.277344 245.429688 36.277344 C 187.183594 36.277344 137.777344 78.753906 128.40625 135.75 C 127.539062 141.019531 123.117188 144.972656 117.785156 145.246094 C 71.972656 147.578125 35.917969 185.167969 35.917969 231.039062 C 35.917969 277.75 73.03125 315.800781 119.359375 317.277344 L 122.152344 317.320312 L 155.980469 317.320312 C 162.246094 317.320312 167.328125 322.402344 167.328125 328.675781 C 167.328125 334.5 162.949219 339.296875 157.304688 339.953125 L 155.980469 340.03125 L 122.152344 340.03125 C 61.996094 340.03125 13.21875 291.226562 13.21875 231.039062 C 13.21875 177.167969 52.515625 132.351562 104.4375 123.867188 L 107.722656 123.371094 L 108.078125 121.84375 C 122.914062 60.257812 177.542969 15.203125 241.910156 13.613281 Z M 245.429688 13.570312 "/>
</g>
</svg>
