<svg width="100" height="60" xmlns="http://www.w3.org/2000/svg" xmlns:xlink="http://www.w3.org/1999/xlink"><defs><filter x="-30%" y="-20%" width="160%" height="160%" filterUnits="objectBoundingBox" id="c"><feMorphology radius=".5" in="SourceAlpha" result="shadowSpreadOuter1"/><feOffset dy="3" in="shadowSpreadOuter1" result="shadowOffsetOuter1"/><feGaussianBlur stdDeviation="3" in="shadowOffsetOuter1" result="shadowBlurOuter1"/><feColorMatrix values="0 0 0 0 0 0 0 0 0 0 0 0 0 0 0 0 0 0 0.22 0" in="shadowBlurOuter1"/></filter><circle id="d" cx="15" cy="15" r="15"/><rect id="a" x="0" y="0" width="100" height="60" rx="3.636"/></defs><g fill="none" fill-rule="evenodd"><g><mask id="b" fill="#fff"><use xlink:href="#a"/></mask><use fill="#EEF0F3" xlink:href="#a"/><g mask="url(#b)"><path d="M82.179 52.326l.019-25.492-1.768-3.308 53.206-35.344v30.152c-29.788 22.069-45.162 33.4-46.12 33.992-1.68.007-3.46.007-5.337 0z" fill="#D0D3D6" opacity=".3"/><path fill="#AEB0B4" d="M83.157 45.342h-1.919V51.2h1.92zM81.238 23.526a4.04 4.04 0 00-4.04 4.04h3.232v1.414H77.2v1.01h3.231v1.414H77.2v1.01h3.231v1.414H77.2v1.01h3.231v1.414H77.2v1.01a4.04 4.04 0 004.04 4.04h1.918a4.04 4.04 0 004.04-4.04v-1.01h-3.232v-1.414h3.233v-1.01h-3.233v-1.414h3.233v-1.01h-3.233V29.99h3.233v-1.01h-3.233v-1.414h3.233a4.04 4.04 0 00-4.04-4.04h-1.92z"/><path d="M88.516 36.403v1.125a5.05 5.05 0 01-5.117 5.05l-2.575-.035a5.05 5.05 0 01-4.983-5.05v-1.09h0" stroke="#AEB0B4" stroke-width="1.111"/><path stroke="#AEB0B4" stroke-width="1.212" stroke-linecap="round" d="M83.512 44.128h-2.766M87.166 52.326H77.2"/></g></g><g transform="translate(35 15)"><use fill="#000" filter="url(#c)" xlink:href="#d"/><use fill="#FFF" xlink:href="#d"/></g><path d="M46.59 34.095c0 .75.513 1.018 1.139.601l5.906-3.938c.628-.418.626-1.1 0-1.516l-5.906-3.938c-.629-.419-1.138-.14-1.138.601v8.19z" fill="#122B46"/></g></svg>