<svg width="170" height="110" fill="none" xmlns="http://www.w3.org/2000/svg">
    <rect x=".5" y=".5" width="169" height="109" rx="3.5" fill="#fff"/>
    <rect x=".5" y=".5" width="169" height="109" rx="3.5" stroke="#B0B6BD"/>
    <path d="M12.412 14.02h2.448c.36 0 .66-.1.9-.3.24-.208.36-.504.36-.888 0-.432-.108-.736-.324-.912-.216-.176-.528-.264-.936-.264h-2.448v2.364Zm-1.5-3.588h4.164c.768 0 1.384.176 1.848.528.464.352.696.884.696 1.596 0 .432-.108.804-.324 1.116-.208.304-.508.54-.9.708v.024c.528.112.928.364 1.2.756.272.384.408.868.408 1.452 0 .336-.06.652-.18.948-.12.288-.308.54-.564.756-.256.208-.584.376-.984.504-.4.12-.876.18-1.428.18h-3.936v-8.568Zm1.5 7.344h2.652c.456 0 .808-.116 1.056-.348.256-.24.384-.576.384-1.008 0-.424-.128-.748-.384-.972-.248-.232-.6-.348-1.056-.348h-2.652v2.676Zm6.793-7.344h1.368V19h-1.368v-8.568Zm5.703 8.736c-.496 0-.94-.08-1.332-.24a2.976 2.976 0 0 1-.984-.684 3.021 3.021 0 0 1-.612-1.032c-.136-.4-.204-.84-.204-1.32 0-.472.068-.908.204-1.308.144-.4.348-.744.612-1.032.272-.288.6-.512.984-.672a3.351 3.351 0 0 1 1.332-.252c.496 0 .936.084 1.32.252.392.16.72.384.984.672.272.288.476.632.612 1.032.144.4.216.836.216 1.308 0 .48-.072.92-.216 1.32a2.82 2.82 0 0 1-1.596 1.716c-.384.16-.824.24-1.32.24Zm0-1.08a1.57 1.57 0 0 0 1.344-.696 2.11 2.11 0 0 0 .312-.696 2.999 2.999 0 0 0 0-1.596 1.973 1.973 0 0 0-.312-.696 1.57 1.57 0 0 0-1.344-.696 1.57 1.57 0 0 0-1.344.696c-.144.2-.252.432-.324.696a3.351 3.351 0 0 0 0 1.596c.072.256.18.488.324.696a1.57 1.57 0 0 0 1.344.696Zm8.457-3.216c-.056-.384-.212-.672-.468-.864-.248-.2-.564-.3-.948-.3-.176 0-.364.032-.564.096-.2.056-.384.168-.552.336-.168.16-.308.388-.42.684-.112.288-.168.668-.168 1.14 0 .256.028.512.084.768.064.256.16.484.288.684.136.2.308.364.516.492.208.12.46.18.756.18.4 0 .728-.124.984-.372.264-.248.428-.596.492-1.044h1.368c-.128.808-.436 1.428-.924 1.86-.48.424-1.12.636-1.92.636-.488 0-.92-.08-1.296-.24a2.86 2.86 0 0 1-.936-.672 2.992 2.992 0 0 1-.588-1.02 4.075 4.075 0 0 1-.192-1.272c0-.464.064-.9.192-1.308.128-.408.32-.76.576-1.056.256-.304.572-.54.948-.708.384-.176.832-.264 1.344-.264.36 0 .7.048 1.02.144.328.088.616.224.864.408.256.184.464.416.624.696.16.28.256.612.288.996h-1.368Zm2.516-4.44h1.368v4.872l2.472-2.508h1.68l-2.376 2.28L41.629 19h-1.668l-1.896-3.012-.816.792V19h-1.368v-8.568Zm7.441 6.576c.04.4.192.68.456.84.264.16.58.24.948.24.128 0 .272-.008.432-.024.168-.024.324-.064.468-.12a.848.848 0 0 0 .348-.24.596.596 0 0 0 .132-.432.604.604 0 0 0-.192-.432c-.12-.112-.276-.2-.468-.264a3.794 3.794 0 0 0-.636-.18c-.24-.048-.484-.1-.732-.156a7.251 7.251 0 0 1-.744-.204 2.508 2.508 0 0 1-.636-.324 1.54 1.54 0 0 1-.444-.516c-.112-.216-.168-.48-.168-.792 0-.336.08-.616.24-.84.168-.232.376-.416.624-.552.256-.144.536-.244.84-.3.312-.056.608-.084.888-.084.32 0 .624.036.912.108.296.064.56.172.792.324.24.152.436.352.588.6.16.24.26.532.3.876h-1.428c-.064-.328-.216-.548-.456-.66a1.828 1.828 0 0 0-.804-.168c-.096 0-.212.008-.348.024a1.498 1.498 0 0 0-.372.096.703.703 0 0 0-.288.192.438.438 0 0 0-.12.324.53.53 0 0 0 .168.408c.12.104.272.192.456.264.192.064.408.12.648.168.24.048.488.1.744.156.248.056.492.124.732.204.24.08.452.188.636.324.192.136.344.308.456.516.12.208.18.464.18.768 0 .368-.084.68-.252.936a1.974 1.974 0 0 1-.66.624c-.264.16-.56.276-.888.348a4.524 4.524 0 0 1-2.064-.024 2.676 2.676 0 0 1-.864-.396 2.113 2.113 0 0 1-.576-.672 2.233 2.233 0 0 1-.216-.96h1.368Z" fill="#444"/>
    <rect x="58" y="13" width="102" height="3" rx="1.5" fill="#CED7E0"/>
    <rect x="10" y="29" width="150" height="12.5" rx="2" fill="#86919E"/>
    <rect x="10" y="48.5" width="150" height="12.5" rx="2" fill="#86919E"/>
    <rect x="10" y="68" width="150" height="12.5" rx="2" fill="#86919E"/>
    <path d="M17.58 93.427v.646c0 .14-.12.242-.241.242h-1.774v1.774a.245.245 0 0 1-.242.242h-.646a.233.233 0 0 1-.242-.242v-1.775h-1.774a.233.233 0 0 1-.242-.241v-.646c0-.12.101-.242.242-.242h1.774v-1.774c0-.12.101-.242.242-.242h.646c.12 0 .242.121.242.242v1.775h1.774a.26.26 0 0 1 .242.241Zm2.42.323a5 5 0 0 1-5 5 5 5 0 0 1-5-5 5 5 0 0 1 5-5 5 5 0 0 1 5 5Zm-.968 0A4.044 4.044 0 0 0 15 89.718a4.031 4.031 0 0 0-4.032 4.032A4.018 4.018 0 0 0 15 97.782a4.031 4.031 0 0 0 4.032-4.032Z" fill="#86919E"/>
    <rect x="23" y="92.25" width="20" height="3" rx="1.5" fill="#CED7E0"/>
</svg>
