<svg width="170" height="110" fill="none" xmlns="http://www.w3.org/2000/svg">
    <rect x=".5" y=".5" width="169" height="109" rx="3.5" fill="#fff"/>
    <rect x=".5" y=".5" width="169" height="109" rx="3.5" stroke="#B0B6BD"/>
    <path d="M10.912 10.432h4.092c.944 0 1.652.204 2.124.612.472.408.708.976.708 1.704 0 .408-.06.748-.18 1.02-.12.264-.26.48-.42.648-.16.16-.32.276-.48.348-.152.072-.264.12-.336.144v.024c.128.016.264.056.408.12.152.064.292.168.42.312.128.136.232.316.312.54.088.224.132.504.132.84 0 .504.036.964.108 1.38.08.408.2.7.36.876h-1.608c-.112-.184-.18-.388-.204-.612-.016-.224-.024-.44-.024-.648 0-.392-.024-.728-.072-1.008-.048-.288-.136-.524-.264-.708-.128-.192-.304-.332-.528-.42-.216-.088-.496-.132-.84-.132h-2.208V19h-1.5v-8.568Zm1.5 3.9h2.46c.48 0 .844-.112 1.092-.336.248-.232.372-.576.372-1.032 0-.272-.04-.492-.12-.66-.08-.176-.192-.312-.336-.408-.136-.096-.296-.16-.48-.192-.176-.032-.36-.048-.552-.048h-2.436v2.676Zm9.6012 4.836c-.496 0-.94-.08-1.332-.24-.384-.168-.712-.396-.984-.684-.264-.288-.468-.632-.612-1.032-.136-.4-.204-.84-.204-1.32 0-.472.068-.908.204-1.308.144-.4.348-.744.612-1.032.272-.288.6-.512.984-.672.392-.168.836-.252 1.332-.252.496 0 .936.084 1.32.252.392.16.72.384.984.672.272.288.476.632.612 1.032.144.4.216.836.216 1.308 0 .48-.072.92-.216 1.32-.136.4-.34.744-.612 1.032-.264.288-.592.516-.984.684-.384.16-.824.24-1.32.24Zm0-1.08c.304 0 .568-.064.792-.192.224-.128.408-.296.552-.504.144-.208.248-.44.312-.696.072-.264.108-.532.108-.804 0-.264-.036-.528-.108-.792-.064-.264-.168-.496-.312-.696-.144-.208-.328-.376-.552-.504-.224-.128-.488-.192-.792-.192-.304 0-.568.064-.792.192-.224.128-.408.296-.552.504-.144.2-.252.432-.324.696a3.351 3.351 0 0 0-.096.792c0 .272.032.54.096.804.072.256.18.488.324.696.144.208.328.376.552.504.224.128.488.192.792.192Zm3.7053-5.292h1.452l1.212 4.632h.024l1.164-4.632h1.38l1.116 4.632h.024l1.26-4.632h1.392L32.7985 19h-1.404l-1.152-4.608h-.024L29.0785 19h-1.44l-1.92-6.204Zm10.9358 4.212c.04.4.192.68.456.84.264.16.58.24.948.24.128 0 .272-.008.432-.024.168-.024.324-.064.468-.12.144-.056.26-.136.348-.24.096-.112.14-.256.132-.432-.008-.176-.072-.32-.192-.432-.12-.112-.276-.2-.468-.264-.184-.072-.396-.132-.636-.18-.24-.048-.484-.1-.732-.156a7.251 7.251 0 0 1-.744-.204c-.232-.08-.444-.188-.636-.324-.184-.136-.332-.308-.444-.516-.112-.216-.168-.48-.168-.792 0-.336.08-.616.24-.84.168-.232.376-.416.624-.552.256-.144.536-.244.84-.3.312-.056.608-.084.888-.084.32 0 .624.036.912.108.296.064.56.172.792.324.24.152.436.352.588.6.16.24.26.532.3.876h-1.428c-.064-.328-.216-.548-.456-.66-.232-.112-.5-.168-.804-.168-.096 0-.212.008-.348.024-.128.016-.252.048-.372.096a.703.703 0 0 0-.288.192c-.08.08-.12.188-.12.324 0 .168.056.304.168.408.12.104.272.192.456.264.192.064.408.12.648.168.24.048.488.1.744.156.248.056.492.124.732.204.24.08.452.188.636.324.192.136.344.308.456.516.12.208.18.464.18.768 0 .368-.084.68-.252.936-.168.256-.388.464-.66.624-.264.16-.56.276-.888.348-.328.072-.652.108-.972.108-.392 0-.756-.044-1.092-.132-.328-.088-.616-.22-.864-.396-.24-.184-.432-.408-.576-.672-.136-.272-.208-.592-.216-.96h1.368Z" fill="#444"/>
    <rect x="52" y="13" width="108" height="3" rx="1.5" fill="#CED7E0"/>
    <rect x="10" y="29" width="122" height="12.5" rx="2" fill="#86919E"/>
    <path d="M144.581 34.9274v.6452c0 .1411-.121.2419-.242.2419h-1.774v1.7742c0 .1411-.121.2419-.242.2419h-.646c-.141 0-.242-.1008-.242-.2419v-1.7742h-1.774c-.141 0-.242-.1008-.242-.2419v-.6452c0-.1209.101-.2419.242-.2419h1.774v-1.7742c0-.121.101-.2419.242-.2419h.646c.121 0 .242.1209.242.2419v1.7742h1.774c.121 0 .242.121.242.2419ZM147 35.25c0 2.7621-2.238 5-5 5s-5-2.2379-5-5 2.238-5 5-5 5 2.2379 5 5Zm-.968 0c0-2.2177-1.814-4.0323-4.032-4.0323-2.238 0-4.032 1.8146-4.032 4.0323A4.018 4.018 0 0 0 142 39.2823c2.218 0 4.032-1.7944 4.032-4.0323ZM152.661 35.8145c-.141 0-.242-.1008-.242-.2419v-.6452c0-.1209.101-.2419.242-.2419h4.678c.121 0 .242.121.242.2419v.6452c0 .1411-.121.2419-.242.2419h-4.678ZM160 35.25c0 2.7621-2.238 5-5 5s-5-2.2379-5-5 2.238-5 5-5 5 2.2379 5 5Zm-.968 0c0-2.2177-1.814-4.0323-4.032-4.0323-2.238 0-4.032 1.8146-4.032 4.0323A4.018 4.018 0 0 0 155 39.2823c2.218 0 4.032-1.7944 4.032-4.0323Z" fill="#86919E"/>
    <rect x="10" y="48.5" width="122" height="12.5" rx="2" fill="#86919E"/>
    <path d="M144.581 54.4274v.6452c0 .1411-.121.2419-.242.2419h-1.774v1.7742c0 .1411-.121.2419-.242.2419h-.646c-.141 0-.242-.1008-.242-.2419v-1.7742h-1.774c-.141 0-.242-.1008-.242-.2419v-.6452c0-.1209.101-.2419.242-.2419h1.774v-1.7742c0-.121.101-.2419.242-.2419h.646c.121 0 .242.1209.242.2419v1.7742h1.774c.121 0 .242.121.242.2419ZM147 54.75c0 2.7621-2.238 5-5 5s-5-2.2379-5-5 2.238-5 5-5 5 2.2379 5 5Zm-.968 0c0-2.2177-1.814-4.0323-4.032-4.0323-2.238 0-4.032 1.8146-4.032 4.0323A4.018 4.018 0 0 0 142 58.7823c2.218 0 4.032-1.7944 4.032-4.0323ZM152.661 55.3145c-.141 0-.242-.1008-.242-.2419v-.6452c0-.1209.101-.2419.242-.2419h4.678c.121 0 .242.121.242.2419v.6452c0 .1411-.121.2419-.242.2419h-4.678ZM160 54.75c0 2.7621-2.238 5-5 5s-5-2.2379-5-5 2.238-5 5-5 5 2.2379 5 5Zm-.968 0c0-2.2177-1.814-4.0323-4.032-4.0323-2.238 0-4.032 1.8146-4.032 4.0323A4.018 4.018 0 0 0 155 58.7823c2.218 0 4.032-1.7944 4.032-4.0323Z" fill="#86919E"/>
    <rect x="10" y="68" width="122" height="12.5" rx="2" fill="#86919E"/>
    <path d="M144.581 73.9274v.6452c0 .1411-.121.2419-.242.2419h-1.774v1.7742c0 .1411-.121.2419-.242.2419h-.646c-.141 0-.242-.1008-.242-.2419v-1.7742h-1.774c-.141 0-.242-.1008-.242-.2419v-.6452c0-.1209.101-.2419.242-.2419h1.774v-1.7742c0-.121.101-.2419.242-.2419h.646c.121 0 .242.1209.242.2419v1.7742h1.774c.121 0 .242.121.242.2419ZM147 74.25c0 2.7621-2.238 5-5 5s-5-2.2379-5-5 2.238-5 5-5 5 2.2379 5 5Zm-.968 0c0-2.2177-1.814-4.0323-4.032-4.0323-2.238 0-4.032 1.8146-4.032 4.0323A4.018 4.018 0 0 0 142 78.2823c2.218 0 4.032-1.7944 4.032-4.0323ZM152.661 74.8145c-.141 0-.242-.1008-.242-.2419v-.6452c0-.1209.101-.2419.242-.2419h4.678c.121 0 .242.121.242.2419v.6452c0 .1411-.121.2419-.242.2419h-4.678ZM160 74.25c0 2.7621-2.238 5-5 5s-5-2.2379-5-5 2.238-5 5-5 5 2.2379 5 5Zm-.968 0c0-2.2177-1.814-4.0323-4.032-4.0323-2.238 0-4.032 1.8146-4.032 4.0323A4.018 4.018 0 0 0 155 78.2823c2.218 0 4.032-1.7944 4.032-4.0323Z" fill="#86919E"/>
    <rect x="10" y="87.5" width="122" height="12.5" rx="2" fill="#86919E"/>
    <path d="M144.581 93.4274v.6452c0 .1411-.121.2419-.242.2419h-1.774v1.7742c0 .1411-.121.2419-.242.2419h-.646c-.141 0-.242-.1008-.242-.2419v-1.7742h-1.774c-.141 0-.242-.1008-.242-.2419v-.6452c0-.1209.101-.2419.242-.2419h1.774v-1.7742c0-.121.101-.2419.242-.2419h.646c.121 0 .242.1209.242.2419v1.7742h1.774c.121 0 .242.121.242.2419ZM147 93.75c0 2.7621-2.238 5-5 5s-5-2.2379-5-5 2.238-5 5-5 5 2.2379 5 5Zm-.968 0c0-2.2177-1.814-4.0323-4.032-4.0323-2.238 0-4.032 1.8146-4.032 4.0323A4.018 4.018 0 0 0 142 97.7823c2.218 0 4.032-1.7944 4.032-4.0323ZM152.661 94.3145c-.141 0-.242-.1008-.242-.2419v-.6452c0-.1209.101-.2419.242-.2419h4.678c.121 0 .242.121.242.2419v.6452c0 .1411-.121.2419-.242.2419h-4.678ZM160 93.75c0 2.7621-2.238 5-5 5s-5-2.2379-5-5 2.238-5 5-5 5 2.2379 5 5Zm-.968 0c0-2.2177-1.814-4.0323-4.032-4.0323-2.238 0-4.032 1.8146-4.032 4.0323A4.018 4.018 0 0 0 155 97.7823c2.218 0 4.032-1.7944 4.032-4.0323Z" fill="#86919E"/>
</svg>
