<svg width="180" height="120" fill="none" xmlns="http://www.w3.org/2000/svg">
    <rect x="5" y="3" width="170" height="110" rx="4" fill="#fff" shape-rendering="crispEdges"/>
    <rect x="5" y="3" width="170" height="110" rx="4" stroke="#036AAB" stroke-width="2" shape-rendering="crispEdges"/>
    <path d="M17.412 17.02h2.448c.36 0 .66-.1.9-.3.24-.208.36-.504.36-.888 0-.432-.108-.736-.324-.912-.216-.176-.528-.264-.936-.264h-2.448v2.364Zm-1.5-3.588h4.164c.768 0 1.384.176 1.848.528.464.352.696.884.696 1.596 0 .432-.108.804-.324 1.116-.208.304-.508.54-.9.708v.024c.528.112.928.364 1.2.756.272.384.408.868.408 1.452 0 .336-.06.652-.18.948-.12.288-.308.54-.564.756-.256.208-.584.376-.984.504-.4.12-.876.18-1.428.18h-3.936v-8.568Zm1.5 7.344h2.652c.456 0 .808-.116 1.056-.348.256-.24.384-.576.384-1.008 0-.424-.128-.748-.384-.972-.248-.232-.6-.348-1.056-.348h-2.652v2.676Zm6.7932-7.344h1.368V22h-1.368v-8.568Zm5.7026 8.736c-.496 0-.94-.08-1.332-.24-.384-.168-.712-.396-.984-.684-.264-.288-.468-.632-.612-1.032-.136-.4-.204-.84-.204-1.32 0-.472.068-.908.204-1.308.144-.4.348-.744.612-1.032.272-.288.6-.512.984-.672.392-.168.836-.252 1.332-.252.496 0 .936.084 1.32.252.392.16.72.384.984.672.272.288.476.632.612 1.032.144.4.216.836.216 1.308 0 .48-.072.92-.216 1.32-.136.4-.34.744-.612 1.032-.264.288-.592.516-.984.684-.384.16-.824.24-1.32.24Zm0-1.08c.304 0 .568-.064.792-.192.224-.128.408-.296.552-.504.144-.208.248-.44.312-.696.072-.264.108-.532.108-.804 0-.264-.036-.528-.108-.792-.064-.264-.168-.496-.312-.696-.144-.208-.328-.376-.552-.504-.224-.128-.488-.192-.792-.192-.304 0-.568.064-.792.192-.224.128-.408.296-.552.504-.144.2-.252.432-.324.696a3.351 3.351 0 0 0-.096.792c0 .272.032.54.096.804.072.256.18.488.324.696.144.208.328.376.552.504.224.128.488.192.792.192Zm8.4572-3.216c-.056-.384-.212-.672-.468-.864-.248-.2-.564-.3-.948-.3-.176 0-.364.032-.564.096-.2.056-.384.168-.552.336-.168.16-.308.388-.42.684-.112.288-.168.668-.168 1.14 0 .256.028.512.084.768.064.256.16.484.288.684.136.2.308.364.516.492.208.12.46.18.756.18.4 0 .728-.124.984-.372.264-.248.428-.596.492-1.044h1.368c-.128.808-.436 1.428-.924 1.86-.48.424-1.12.636-1.92.636-.488 0-.92-.08-1.296-.24-.368-.168-.68-.392-.936-.672-.256-.288-.452-.628-.588-1.02-.128-.392-.192-.816-.192-1.272 0-.464.064-.9.192-1.308.128-.408.32-.76.576-1.056.256-.304.572-.54.948-.708.384-.176.832-.264 1.344-.264.36 0 .7.048 1.02.144.328.088.616.224.864.408.256.184.464.416.624.696.16.28.256.612.288.996h-1.368Zm2.516-4.44h1.368v4.872l2.472-2.508h1.68l-2.376 2.28L46.629 22h-1.668l-1.896-3.012-.816.792V22h-1.368v-8.568Zm7.4413 6.576c.04.4.192.68.456.84.264.16.58.24.948.24.128 0 .272-.008.432-.024.168-.024.324-.064.468-.12.144-.056.26-.136.348-.24.096-.112.14-.256.132-.432-.008-.176-.072-.32-.192-.432-.12-.112-.276-.2-.468-.264-.184-.072-.396-.132-.636-.18-.24-.048-.484-.1-.732-.156a7.251 7.251 0 0 1-.744-.204c-.232-.08-.444-.188-.636-.324-.184-.136-.332-.308-.444-.516-.112-.216-.168-.48-.168-.792 0-.336.08-.616.24-.84.168-.232.376-.416.624-.552.256-.144.536-.244.84-.3.312-.056.608-.084.888-.084.32 0 .624.036.912.108.296.064.56.172.792.324.24.152.436.352.588.6.16.24.26.532.3.876h-1.428c-.064-.328-.216-.548-.456-.66-.232-.112-.5-.168-.804-.168-.096 0-.212.008-.348.024-.128.016-.252.048-.372.096a.703.703 0 0 0-.288.192c-.08.08-.12.188-.12.324 0 .168.056.304.168.408.12.104.272.192.456.264.192.064.408.12.648.168.24.048.488.1.744.156.248.056.492.124.732.204.24.08.452.188.636.324.192.136.344.308.456.516.12.208.18.464.18.768 0 .368-.084.68-.252.936-.168.256-.388.464-.66.624-.264.16-.56.276-.888.348-.328.072-.652.108-.972.108-.392 0-.756-.044-1.092-.132-.328-.088-.616-.22-.864-.396-.24-.184-.432-.408-.576-.672-.136-.272-.208-.592-.216-.96h1.368Z" fill="#444"/>
    <rect x="63" y="16" width="102" height="3" rx="1.5" fill="#CED7E0"/>
    <rect x="15" y="32" width="150" height="12.5" rx="2" fill="#036AAB"/>
    <rect x="15" y="51.5" width="150" height="12.5" rx="2" fill="#036AAB"/>
    <rect x="15" y="71" width="150" height="12.5" rx="2" fill="#036AAB"/>
    <path d="M22.5806 96.4274v.6452c0 .1411-.1209.2419-.2419.2419h-1.7742v1.7742c0 .1411-.121.2419-.2419.2419h-.6452c-.1411 0-.2419-.1008-.2419-.2419v-1.7742h-1.7742c-.1411 0-.2419-.1008-.2419-.2419v-.6452c0-.1209.1008-.2419.2419-.2419h1.7742v-1.7742c0-.121.1008-.2419.2419-.2419h.6452c.1209 0 .2419.1209.2419.2419v1.7742h1.7742c.121 0 .2419.121.2419.2419ZM25 96.75c0 2.7621-2.2379 5-5 5s-5-2.2379-5-5 2.2379-5 5-5 5 2.2379 5 5Zm-.9677 0c0-2.2177-1.8146-4.0323-4.0323-4.0323-2.2379 0-4.0323 1.8146-4.0323 4.0323A4.0181 4.0181 0 0 0 20 100.782c2.2177 0 4.0323-1.7941 4.0323-4.032Z" fill="#036AAB"/>
    <rect x="28" y="95.25" width="20" height="3" rx="1.5" fill="#036AAB" opacity=".35"/>
</svg>
