<svg viewBox="0 0 22 22" xmlns="http://www.w3.org/2000/svg"><path d="M17.639 4.778H4.333C3.583 4.778 3 5.388 3 6.11v9.778c0 .75.583 1.333 1.333 1.333H17.64c.75 0 1.361-.583 1.361-1.333V6.11c0-.722-.611-1.333-1.361-1.333ZM4.5 6.11h12.972c.111 0 .167.083.167.167v1.166H4.333V6.278c0-.084.056-.167.167-.167Zm12.972 9.778H4.5c-.111 0-.167-.056-.167-.167V11H17.64v4.722c0 .111-.056.167-.167.167ZM8.333 13.11A.358.358 0 0 0 8 12.778H6a.338.338 0 0 0-.333.333v1.111a.32.32 0 0 0 .333.334h2a.338.338 0 0 0 .333-.334v-1.11Zm5.334 0a.358.358 0 0 0-.334-.333H9.556a.338.338 0 0 0-.334.333v1.111a.32.32 0 0 0 .334.334h3.777a.338.338 0 0 0 .334-.334v-1.11Z" fill="#8c8f94"/></svg>
