<svg viewBox="0 0 22 22" xmlns="http://www.w3.org/2000/svg"><path d="M7.016 14.008H16c.287 0 .52.104.703.312a.892.892 0 0 1 .313.703c0 .26-.104.495-.313.704A.952.952 0 0 1 16 16H6a1.09 1.09 0 0 1-.742-.273 1.09 1.09 0 0 1-.274-.743v-10H2.992a1.04 1.04 0 0 1-.703-.273 1.04 1.04 0 0 1-.273-.703c0-.287.09-.521.273-.703.208-.209.443-.313.703-.313H6c.286 0 .52.104.703.313a.892.892 0 0 1 .313.703V6h12.968L16 12.992H7.016v1.016Zm-.508 3.008c.416 0 .768.143 1.054.43.287.286.43.637.43 1.054 0 .417-.143.768-.43 1.055-.286.286-.638.43-1.054.43-.417 0-.781-.144-1.094-.43a1.434 1.434 0 0 1-.43-1.055c0-.417.144-.768.43-1.055.313-.286.677-.43 1.094-.43Zm8.984 0c.417 0 .768.143 1.055.43.312.286.469.637.469 1.054 0 .417-.157.768-.47 1.055-.286.286-.637.43-1.054.43-.417 0-.768-.144-1.055-.43a1.434 1.434 0 0 1-.43-1.055c0-.417.144-.768.43-1.055.287-.286.639-.43 1.055-.43Z" fill="#8c8f94"/></svg>
