<?xml version="1.0" encoding="UTF-8"?>
<svg xmlns="http://www.w3.org/2000/svg" xmlns:xlink="http://www.w3.org/1999/xlink" width="16px" height="14px" viewBox="0 0 15 14" version="1.1">
<g id="surface1">
<path style=" stroke:none;fill-rule:nonzero;fill:rgb(44.705883%,46.666667%,48.627451%);fill-opacity:1;" d="M 10.625 0 C 10.277344 0 10 0.292969 10 0.65625 C 10 1.019531 10.277344 1.3125 10.625 1.3125 L 11.992188 1.3125 L 8.339844 4.597656 L 5.410156 1.910156 C 5.199219 1.71875 4.886719 1.695312 4.652344 1.859375 L 0.277344 4.921875 C -0.0078125 5.125 -0.0859375 5.53125 0.105469 5.832031 C 0.292969 6.132812 0.683594 6.214844 0.972656 6.015625 L 4.949219 3.230469 L 7.921875 5.964844 C 8.15625 6.179688 8.503906 6.179688 8.738281 5.96875 L 12.917969 2.207031 L 12.917969 3.71875 C 12.917969 4.082031 13.195312 4.375 13.542969 4.375 C 13.886719 4.375 14.167969 4.082031 14.167969 3.71875 L 14.167969 0.65625 C 14.167969 0.292969 13.886719 0 13.542969 0 Z M 5.207031 11.8125 C 5.207031 11.933594 5.113281 12.03125 5 12.03125 C 4.886719 12.03125 4.792969 11.933594 4.792969 11.8125 L 4.792969 7.4375 C 4.792969 7.316406 4.886719 7.21875 5 7.21875 C 5.113281 7.21875 5.207031 7.316406 5.207031 7.4375 Z M 5 6.125 C 4.308594 6.125 3.75 6.710938 3.75 7.4375 L 3.75 11.8125 C 3.75 12.539062 4.308594 13.125 5 13.125 C 5.691406 13.125 6.25 12.539062 6.25 11.8125 L 6.25 7.4375 C 6.25 6.710938 5.691406 6.125 5 6.125 Z M 1.875 11.8125 C 1.875 11.933594 1.78125 12.03125 1.667969 12.03125 C 1.550781 12.03125 1.457031 11.933594 1.457031 11.8125 L 1.457031 10.0625 C 1.457031 9.941406 1.550781 9.84375 1.667969 9.84375 C 1.78125 9.84375 1.875 9.941406 1.875 10.0625 Z M 1.667969 8.75 C 0.976562 8.75 0.417969 9.335938 0.417969 10.0625 L 0.417969 11.8125 C 0.417969 12.539062 0.976562 13.125 1.667969 13.125 C 2.355469 13.125 2.917969 12.539062 2.917969 11.8125 L 2.917969 10.0625 C 2.917969 9.335938 2.355469 8.75 1.667969 8.75 Z M 11.25 14 C 13.320312 14 15 12.238281 15 10.0625 C 15 7.886719 13.320312 6.125 11.25 6.125 C 9.179688 6.125 7.5 7.886719 7.5 10.0625 C 7.5 12.238281 9.179688 14 11.25 14 Z M 10.628906 9.269531 C 10.628906 9.269531 10.628906 9.269531 10.628906 9.273438 C 10.628906 9.28125 10.628906 9.324219 10.753906 9.394531 C 10.898438 9.476562 11.105469 9.539062 11.375 9.621094 L 11.378906 9.621094 C 11.621094 9.691406 11.929688 9.785156 12.175781 9.933594 C 12.441406 10.097656 12.695312 10.375 12.707031 10.816406 C 12.722656 11.316406 12.457031 11.648438 12.144531 11.828125 C 11.992188 11.910156 11.828125 11.964844 11.667969 11.996094 L 11.667969 12.289062 C 11.667969 12.53125 11.480469 12.726562 11.25 12.726562 C 11.019531 12.726562 10.832031 12.53125 10.832031 12.289062 L 10.832031 11.980469 C 10.609375 11.933594 10.398438 11.863281 10.214844 11.796875 C 10.171875 11.78125 10.128906 11.769531 10.085938 11.753906 C 9.867188 11.683594 9.742188 11.4375 9.8125 11.207031 C 9.882812 10.976562 10.113281 10.847656 10.332031 10.921875 C 10.386719 10.9375 10.433594 10.953125 10.484375 10.96875 C 10.78125 11.070312 11.015625 11.148438 11.261719 11.15625 C 11.4375 11.160156 11.621094 11.125 11.746094 11.058594 C 11.800781 11.023438 11.832031 10.992188 11.847656 10.96875 C 11.863281 10.945312 11.878906 10.910156 11.875 10.84375 C 11.875 10.804688 11.871094 10.761719 11.753906 10.691406 C 11.613281 10.605469 11.417969 10.542969 11.148438 10.464844 L 11.101562 10.449219 C 10.871094 10.382812 10.585938 10.296875 10.355469 10.167969 C 10.097656 10.023438 9.820312 9.765625 9.792969 9.328125 C 9.761719 8.816406 10.054688 8.484375 10.363281 8.3125 C 10.511719 8.226562 10.675781 8.171875 10.832031 8.140625 L 10.832031 7.878906 C 10.832031 7.640625 11.019531 7.441406 11.246094 7.441406 C 11.476562 7.441406 11.664062 7.640625 11.664062 7.878906 L 11.664062 8.136719 C 11.828125 8.160156 11.984375 8.199219 12.128906 8.238281 C 12.355469 8.296875 12.488281 8.535156 12.433594 8.769531 C 12.378906 9.003906 12.152344 9.144531 11.929688 9.089844 C 11.6875 9.027344 11.457031 8.980469 11.242188 8.976562 C 11.082031 8.972656 10.886719 9.011719 10.753906 9.085938 C 10.691406 9.121094 10.660156 9.15625 10.644531 9.179688 C 10.636719 9.199219 10.621094 9.222656 10.625 9.277344 Z M 10.628906 9.269531 "/>
</g>
</svg>
