<?xml version="1.0" encoding="UTF-8"?>
<svg xmlns="http://www.w3.org/2000/svg" xmlns:xlink="http://www.w3.org/1999/xlink" width="16px" height="16px" viewBox="0 0 16 16" version="1.1">
<g id="surface1">
<path style=" stroke:none;fill-rule:nonzero;fill:rgb(44.705883%,46.666667%,48.627451%);fill-opacity:1;" d="M 13 6.5 C 13 7.933594 12.535156 9.257812 11.75 10.335938 L 15.707031 14.292969 C 16.097656 14.683594 16.097656 15.320312 15.707031 15.710938 C 15.316406 16.101562 14.679688 16.101562 14.289062 15.710938 L 10.335938 11.75 C 9.257812 12.539062 7.933594 13 6.5 13 C 2.910156 13 0 10.089844 0 6.5 C 0 2.910156 2.910156 0 6.5 0 C 10.089844 0 13 2.910156 13 6.5 Z M 7.25 3.75 C 7.25 3.335938 6.914062 3 6.5 3 C 6.085938 3 5.75 3.335938 5.75 3.75 L 5.75 9.25 C 5.75 9.664062 6.085938 10 6.5 10 C 6.914062 10 7.25 9.664062 7.25 9.25 Z M 4.5 4.75 C 4.5 4.335938 4.164062 4 3.75 4 C 3.335938 4 3 4.335938 3 4.75 L 3 8.25 C 3 8.664062 3.335938 9 3.75 9 C 4.164062 9 4.5 8.664062 4.5 8.25 Z M 10 5.75 C 10 5.335938 9.664062 5 9.25 5 C 8.835938 5 8.5 5.335938 8.5 5.75 L 8.5 7.25 C 8.5 7.664062 8.835938 8 9.25 8 C 9.664062 8 10 7.664062 10 7.25 Z M 10 5.75 "/>
</g>
</svg>
