<svg width="42" height="32" viewBox="0 0 42 32" fill="none" xmlns="http://www.w3.org/2000/svg">
<rect width="22.1094" height="4" rx="2" transform="matrix(-0.707107 0.707107 0.707107 0.707107 23.2783 12.5117)" fill="#182352"/>
<rect width="10.1496" height="4" rx="2" transform="matrix(-0.707107 0.707107 0.707107 0.707107 27.5952 8.19043)" fill="#F3704D"/>
<path d="M22.6922 13.098C23.4733 12.3169 24.7403 12.3169 25.5213 13.098C26.2861 13.863 26.2996 15.0913 25.5663 15.8753L24.6307 16.8119C23.8497 17.5929 22.5836 17.5929 21.8026 16.8119C21.0349 16.044 21.0226 14.8084 21.7645 14.0248L22.6922 13.098Z" fill="#FED055"/>
<rect x="21.1978" y="2.91943" width="5.92514" height="2" rx="1" transform="rotate(75 21.1978 2.91943)" fill="#182352"/>
<rect x="17.8779" y="5.84033" width="5.92514" height="2" rx="1" transform="rotate(-15 17.8779 5.84033)" fill="#182352"/>
<rect width="5.92514" height="2" rx="1" transform="matrix(-0.991692 -0.128634 -0.128634 0.991692 37.3389 11.3994)" fill="#182352"/>
<rect width="5.92514" height="2" rx="1" transform="matrix(0.106286 -0.994336 -0.994336 -0.106286 34.9521 15.0615)" fill="#182352"/>
<rect x="36.4912" y="2.55176" width="5.92514" height="2" rx="1" transform="rotate(135 36.4912 2.55176)" fill="#182352"/>
<rect x="35.0771" y="6.74121" width="5.92514" height="2" rx="1" transform="rotate(-135 35.0771 6.74121)" fill="#182352"/>
</svg>
