<svg width="42" height="32" viewBox="0 0 42 32" fill="none" xmlns="http://www.w3.org/2000/svg">
<mask id="mask0_8229_160369" style="mask-type:alpha" maskUnits="userSpaceOnUse" x="5" y="1" width="31" height="30">
<path d="M20.3764 30.7276C12.2864 30.7276 5.72824 24.1621 5.72824 16.0632C5.72824 7.96435 12.2864 1.39893 20.3764 1.39893C28.4663 1.39893 35.0244 7.96435 35.0244 16.0632C35.0244 24.1621 28.4663 30.7276 20.3764 30.7276Z" fill="#FFC401"/>
</mask>
<g mask="url(#mask0_8229_160369)">
<path d="M20.4135 30.7276C12.3235 30.7276 5.76535 24.1621 5.76535 16.0632C5.76535 7.96435 12.3235 1.39893 20.4135 1.39893C28.5034 1.39893 35.0615 7.96435 35.0615 16.0632C35.0615 24.1621 28.5034 30.7276 20.4135 30.7276Z" fill="#1F1147"/>
<path fill-rule="evenodd" clip-rule="evenodd" d="M9.65186 26.0122C12.328 28.9118 16.1588 30.7276 20.4132 30.7276C24.6486 30.7276 28.4641 28.928 31.1385 26.0511C28.4018 23.2606 24.5909 21.5298 20.376 21.5298C16.1808 21.5298 12.3857 23.2446 9.65186 26.0122Z" fill="#FFD147"/>
</g>
<path d="M11.596 8.31467C11.8563 8.05432 12.2784 8.05432 12.5388 8.31467L13.3893 9.1652C13.6497 9.42555 13.6497 9.84766 13.3893 10.108C13.129 10.3684 12.7069 10.3684 12.4465 10.108L11.596 9.25748C11.3356 8.99713 11.3356 8.57502 11.596 8.31467Z" fill="white"/>
<path d="M29.3894 8.31467C29.129 8.05432 28.7069 8.05432 28.4466 8.31467L27.596 9.1652C27.3357 9.42555 27.3357 9.84766 27.596 10.108C27.8564 10.3684 28.2785 10.3684 28.5388 10.108L29.3894 9.25748C29.6497 8.99713 29.6497 8.57502 29.3894 8.31467Z" fill="white"/>
<path d="M20.597 4.59229C20.9652 4.59229 21.2637 4.89076 21.2637 5.25895L21.2637 6.46179C21.2637 6.82998 20.9652 7.12846 20.597 7.12846C20.2288 7.12846 19.9303 6.82998 19.9303 6.46179L19.9303 5.25895C19.9303 4.89076 20.2288 4.59229 20.597 4.59229Z" fill="white"/>
<path fill-rule="evenodd" clip-rule="evenodd" d="M28.2584 9.33014C28.6433 9.72623 28.6342 10.3593 28.2381 10.7442L22.0915 16.717C21.6954 17.1019 21.0623 17.0928 20.6774 16.6967C20.2925 16.3007 20.3016 15.6676 20.6977 15.2827L26.8443 9.30986C27.2404 8.92498 27.8735 8.93406 28.2584 9.33014Z" fill="#F3704D"/>
<path d="M23.5208 16.497C23.5208 18.0853 22.2332 19.3729 20.6449 19.3729C19.0566 19.3729 17.769 18.0853 17.769 16.497C17.769 14.9087 19.0566 13.6211 20.6449 13.6211C22.2332 13.6211 23.5208 14.9087 23.5208 16.497Z" fill="#0D5EC3"/>
<path fill-rule="evenodd" clip-rule="evenodd" d="M20.6449 18.6539C21.8362 18.6539 22.8019 17.6882 22.8019 16.497C22.8019 15.3058 21.8362 14.3401 20.6449 14.3401C19.4537 14.3401 18.488 15.3058 18.488 16.497C18.488 17.6882 19.4537 18.6539 20.6449 18.6539ZM20.6449 19.3729C22.2332 19.3729 23.5208 18.0853 23.5208 16.497C23.5208 14.9087 22.2332 13.6211 20.6449 13.6211C19.0566 13.6211 17.769 14.9087 17.769 16.497C17.769 18.0853 19.0566 19.3729 20.6449 19.3729Z" fill="#1F1147"/>
<rect x="32.5249" y="16.6665" width="2.53617" height="1.33333" rx="0.666667" transform="rotate(-180 32.5249 16.6665)" fill="white"/>
<rect x="28.7241" y="24.1284" width="2.53617" height="1.33333" rx="0.666667" transform="rotate(-135 28.7241 24.1284)" fill="white"/>
<rect width="2.53617" height="1.33333" rx="0.666667" transform="matrix(0.707107 -0.707107 -0.707107 -0.707107 11.8735 24.1284)" fill="white"/>
<rect width="2.53617" height="1.33333" rx="0.666667" transform="matrix(1 8.74228e-08 8.74228e-08 -1 7.87207 16.6665)" fill="white"/>
<rect x="19.5278" y="27.3789" width="2.53617" height="1.33333" rx="0.666667" transform="rotate(-90 19.5278 27.3789)" fill="white"/>
</svg>
