<svg width="42" height="32" viewBox="0 0 42 32" fill="none" xmlns="http://www.w3.org/2000/svg">
<g clip-path="url(#clip0_8223_164656)">
<path fill-rule="evenodd" clip-rule="evenodd" d="M29.2144 28.8774C22.1533 28.8774 16.4292 23.1533 16.4292 16.0923C16.4292 9.03125 22.1533 3.30713 29.2144 3.30713C36.2754 3.30713 41.9995 9.03125 41.9995 16.0923C41.9995 23.1533 36.2754 28.8774 29.2144 28.8774Z" fill="#D4D9DD"/>
<rect x="12.7578" y="3.17432" width="18.2672" height="18.2672" rx="2.66667" transform="rotate(45 12.7578 3.17432)" fill="#182352"/>
<path d="M23.7886 14.2046C24.8297 15.246 24.8298 16.9338 23.7886 17.9751L18.5776 23.1851C17.2209 21.155 16.4292 18.7152 16.4292 16.0903C16.4292 13.4646 17.2211 11.024 18.5786 8.99365L23.7886 14.2046Z" fill="#F3704D"/>
</g>
<defs>
<clipPath id="clip0_8223_164656">
<rect width="42" height="32" fill="white"/>
</clipPath>
</defs>
</svg>
