<svg width="11" height="11" viewBox="0 0 11 11" fill="none" xmlns="http://www.w3.org/2000/svg">
<g clip-path="url(#clip0_8229_154542)">
<path d="M5.5 1.03125C6.68519 1.03125 7.82183 1.50206 8.65988 2.34012C9.49794 3.17817 9.96875 4.31481 9.96875 5.5C9.96875 6.68519 9.49794 7.82183 8.65988 8.65988C7.82183 9.49794 6.68519 9.96875 5.5 9.96875C4.31481 9.96875 3.17817 9.49794 2.34012 8.65988C1.50206 7.82183 1.03125 6.68519 1.03125 5.5C1.03125 4.31481 1.50206 3.17817 2.34012 2.34012C3.17817 1.50206 4.31481 1.03125 5.5 1.03125ZM5.5 11C6.95869 11 8.35764 10.4205 9.38909 9.38909C10.4205 8.35764 11 6.95869 11 5.5C11 4.04131 10.4205 2.64236 9.38909 1.61091C8.35764 0.579463 6.95869 0 5.5 0C4.04131 0 2.64236 0.579463 1.61091 1.61091C0.579463 2.64236 0 4.04131 0 5.5C0 6.95869 0.579463 8.35764 1.61091 9.38909C2.64236 10.4205 4.04131 11 5.5 11ZM4.64062 7.21875C4.35488 7.21875 4.125 7.44863 4.125 7.73438C4.125 8.02012 4.35488 8.25 4.64062 8.25H6.35938C6.64512 8.25 6.875 8.02012 6.875 7.73438C6.875 7.44863 6.64512 7.21875 6.35938 7.21875H6.1875V5.32812C6.1875 5.04238 5.95762 4.8125 5.67188 4.8125H4.64062C4.35488 4.8125 4.125 5.04238 4.125 5.32812C4.125 5.61387 4.35488 5.84375 4.64062 5.84375H5.15625V7.21875H4.64062ZM5.5 4.125C5.68234 4.125 5.8572 4.05257 5.98614 3.92364C6.11507 3.7947 6.1875 3.61984 6.1875 3.4375C6.1875 3.25516 6.11507 3.0803 5.98614 2.95136C5.8572 2.82243 5.68234 2.75 5.5 2.75C5.31766 2.75 5.1428 2.82243 5.01386 2.95136C4.88493 3.0803 4.8125 3.25516 4.8125 3.4375C4.8125 3.61984 4.88493 3.7947 5.01386 3.92364C5.1428 4.05257 5.31766 4.125 5.5 4.125Z" fill="#738191"/>
</g>
<defs>
<clipPath id="clip0_8229_154542">
<rect width="11" height="11" fill="white"/>
</clipPath>
</defs>
</svg>
