<?xml version="1.0" encoding="UTF-8"?>
<svg xmlns="http://www.w3.org/2000/svg" xmlns:xlink="http://www.w3.org/1999/xlink" width="16px" height="16px" viewBox="0 0 16 16" version="1.1">
<g id="surface1">
<path style=" stroke:none;fill-rule:nonzero;fill:rgb(44.705883%,46.666667%,48.627451%);fill-opacity:1;" d="M 8 16 C 12.417969 16 16 12.417969 16 8 C 16 3.582031 12.417969 0 8 0 C 3.582031 0 0 3.582031 0 8 C 0 12.417969 3.582031 16 8 16 Z M 5 7 C 5.550781 7 6 7.449219 6 8 C 6 8.550781 5.550781 9 5 9 C 4.449219 9 4 8.550781 4 8 C 4 7.449219 4.449219 7 5 7 Z M 7 8 C 7 7.449219 7.449219 7 8 7 C 8.550781 7 9 7.449219 9 8 C 9 8.550781 8.550781 9 8 9 C 7.449219 9 7 8.550781 7 8 Z M 11 7 C 11.550781 7 12 7.449219 12 8 C 12 8.550781 11.550781 9 11 9 C 10.449219 9 10 8.550781 10 8 C 10 7.449219 10.449219 7 11 7 Z M 11 7 "/>
</g>
</svg>
