<?xml version="1.0" encoding="UTF-8"?>
<svg xmlns="http://www.w3.org/2000/svg" xmlns:xlink="http://www.w3.org/1999/xlink" width="16px" height="16px" viewBox="0 0 16 14" version="1.1">
<g id="surface1">
<path style=" stroke:none;fill-rule:nonzero;fill:rgb(44.705883%,46.666667%,48.627451%);fill-opacity:1;" d="M 1.777344 0.875 C 0.796875 0.875 0 1.660156 0 2.625 L 0 3.5 L 16 3.5 L 16 2.625 C 16 1.660156 15.203125 0.875 14.222656 0.875 Z M 16 6.125 L 0 6.125 L 0 11.375 C 0 12.339844 0.796875 13.125 1.777344 13.125 L 14.222656 13.125 C 15.203125 13.125 16 12.339844 16 11.375 Z M 3.109375 9.625 L 4.890625 9.625 C 5.132812 9.625 5.332031 9.820312 5.332031 10.0625 C 5.332031 10.304688 5.132812 10.5 4.890625 10.5 L 3.109375 10.5 C 2.867188 10.5 2.667969 10.304688 2.667969 10.0625 C 2.667969 9.820312 2.867188 9.625 3.109375 9.625 Z M 6.222656 10.0625 C 6.222656 9.820312 6.421875 9.625 6.667969 9.625 L 10.222656 9.625 C 10.464844 9.625 10.667969 9.820312 10.667969 10.0625 C 10.667969 10.304688 10.464844 10.5 10.222656 10.5 L 6.667969 10.5 C 6.421875 10.5 6.222656 10.304688 6.222656 10.0625 Z M 6.222656 10.0625 "/>
</g>
</svg>
