<?xml version="1.0" encoding="UTF-8"?>
<svg xmlns="http://www.w3.org/2000/svg" xmlns:xlink="http://www.w3.org/1999/xlink" width="16px" height="16px" viewBox="0 0 16 21" version="1.1">
<g id="surface1">
<path style=" stroke:none;fill-rule:nonzero;fill:rgb(44.705883%,46.666667%,48.627451%);fill-opacity:1;" d="M 4 0 C 3.261719 0 2.667969 0.585938 2.667969 1.3125 L 2.667969 5.25 L 5.332031 5.25 L 5.332031 1.3125 C 5.332031 0.585938 4.738281 0 4 0 Z M 12 0 C 11.261719 0 10.667969 0.585938 10.667969 1.3125 L 10.667969 5.25 L 13.332031 5.25 L 13.332031 1.3125 C 13.332031 0.585938 12.738281 0 12 0 Z M 1.332031 6.5625 C 0.597656 6.5625 0 7.148438 0 7.875 C 0 8.601562 0.597656 9.1875 1.332031 9.1875 L 1.332031 10.5 C 1.332031 13.675781 3.625 16.324219 6.667969 16.929688 L 6.667969 19.6875 C 6.667969 20.414062 7.261719 21 8 21 C 8.738281 21 9.332031 20.414062 9.332031 19.6875 L 9.332031 16.929688 C 12.375 16.324219 14.667969 13.675781 14.667969 10.5 L 14.667969 9.1875 C 15.402344 9.1875 16 8.601562 16 7.875 C 16 7.148438 15.402344 6.5625 14.667969 6.5625 Z M 1.332031 6.5625 "/>
</g>
</svg>
