<svg width="92" height="93" viewBox="0 0 92 93" fill="none" xmlns="http://www.w3.org/2000/svg">
<g clip-path="url(#clip0_269_6700)">
<circle cx="62.8676" cy="29.5" r="29" fill="#F79F88"/>
<path d="M11.5 46.5H15.3333M46 12V15.8333M76.6667 46.5H80.5" stroke="#182352" stroke-width="6" stroke-linecap="round" stroke-linejoin="round"/>
<path d="M34.5 61.833C31.2818 59.4194 28.9047 56.0543 27.7052 52.2146C26.5057 48.3748 26.5448 44.255 27.8169 40.4386C29.089 36.6223 31.5297 33.303 34.7931 30.9509C38.0565 28.5987 41.9773 27.333 46 27.333C50.0228 27.333 53.9436 28.5987 57.207 30.9509C60.4704 33.303 62.911 36.6223 64.1831 40.4386C65.4552 44.255 65.4943 48.3748 64.2949 52.2146C63.0954 56.0543 60.7182 59.4194 57.5 61.833C56.0034 63.3145 54.8765 65.1276 54.2105 67.1254C53.5446 69.1232 53.3583 71.2498 53.6667 73.333C53.6667 75.3663 52.859 77.3164 51.4212 78.7542C49.9834 80.1919 48.0334 80.9997 46 80.9997C43.9667 80.9997 42.0167 80.1919 40.5789 78.7542C39.1411 77.3164 38.3334 75.3663 38.3334 73.333C38.6418 71.2498 38.4555 69.1232 37.7895 67.1254C37.1236 65.1276 35.9967 63.3145 34.5 61.833Z" stroke="#182352" stroke-width="6" stroke-linecap="round" stroke-linejoin="round"/>
<path d="M70.5333 21.9668L67.85 24.6501" stroke="#0D5EC3" stroke-width="6" stroke-linecap="round" stroke-linejoin="round"/>
<path d="M21.4667 21.9668L24.15 24.6501" stroke="#0D5EC3" stroke-width="6" stroke-linecap="round" stroke-linejoin="round"/>
<path d="M37.1831 65.667H54.8164" stroke="#182352" stroke-width="6" stroke-linecap="round" stroke-linejoin="round"/>
</g>
<defs>
<clipPath id="clip0_269_6700">
<rect width="92" height="92" fill="white" transform="translate(0 0.5)"/>
</clipPath>
</defs>
</svg>
