<svg width="26" height="28" viewBox="0 0 26 28" fill="none" xmlns="http://www.w3.org/2000/svg">
<path d="M13.5 7.39697C14.9668 7.39697 16.3969 7.85863 17.5869 8.71631C18.7768 9.57398 19.666 10.7848 20.1299 12.1763C20.5937 13.5678 20.6083 15.0701 20.1709 16.4702C19.7391 17.8523 18.8879 19.0644 17.7373 19.9419C17.4352 20.245 17.1867 20.5954 17 20.978C16.9871 21.0137 16.9713 21.0474 16.9521 21.0796C16.8974 21.2007 16.8479 21.325 16.8057 21.4517C16.6136 22.0281 16.5604 22.6416 16.6494 23.2427C16.6537 23.2717 16.6553 23.3012 16.6553 23.3306C16.6553 24.1674 16.3232 24.9702 15.7314 25.562C15.1397 26.1538 14.3369 26.4858 13.5 26.4858C12.6631 26.4858 11.8603 26.1538 11.2686 25.562C10.6768 24.9702 10.3447 24.1674 10.3447 23.3306C10.3447 23.3012 10.3463 23.2717 10.3506 23.2427C10.4396 22.6416 10.3864 22.0281 10.1943 21.4517C10.1524 21.3258 10.1022 21.2028 10.0479 21.0825C10.0271 21.048 10.0096 21.0117 9.99609 20.9731C9.80962 20.5925 9.56262 20.2436 9.26172 19.9419C8.11145 19.0644 7.26079 17.8521 6.8291 16.4702C6.39174 15.0701 6.40626 13.5678 6.87012 12.1763C7.33395 10.7848 8.22321 9.57398 9.41309 8.71631C10.6031 7.85863 12.0332 7.39697 13.5 7.39697ZM11.4229 21.3755C11.5935 22.0191 11.6349 22.6905 11.5459 23.3521C11.5515 23.8629 11.7555 24.3517 12.1172 24.7134C12.4839 25.0801 12.9814 25.2866 13.5 25.2866C14.0186 25.2866 14.5161 25.0801 14.8828 24.7134C15.2445 24.3517 15.4475 23.8629 15.4531 23.3521C15.3641 22.6906 15.4065 22.019 15.5771 21.3755H11.4229ZM13.5 8.59717C12.285 8.59717 11.1009 8.97957 10.1152 9.68994C9.12967 10.4003 8.39205 11.4027 8.00781 12.5552C7.62364 13.7077 7.61246 14.9522 7.97461 16.1118C8.33684 17.2714 9.05454 18.2881 10.0264 19.0171C10.0483 19.0335 10.0694 19.0515 10.0889 19.0708C10.4207 19.3993 10.7029 19.7718 10.9316 20.1753H16.0684C16.2971 19.7718 16.5793 19.3993 16.9111 19.0708C16.9306 19.0515 16.9517 19.0335 16.9736 19.0171C17.9455 18.2881 18.6632 17.2714 19.0254 16.1118C19.3875 14.9522 19.3764 13.7077 18.9922 12.5552C18.6079 11.4027 17.8703 10.4003 16.8848 9.68994C15.8991 8.97957 14.715 8.59717 13.5 8.59717ZM3.27734 13.7866C3.60871 13.7866 3.87793 14.0549 3.87793 14.3862C3.87793 14.7176 3.60871 14.9858 3.27734 14.9858H2C1.66863 14.9858 1.40039 14.7176 1.40039 14.3862C1.40039 14.0549 1.66863 13.7866 2 13.7866H3.27734ZM25 13.7866C25.3314 13.7866 25.5996 14.0549 25.5996 14.3862C25.5996 14.7176 25.3314 14.9858 25 14.9858H23.7227C23.3913 14.9858 23.1221 14.7176 23.1221 14.3862C23.1221 14.0549 23.3913 13.7866 23.7227 13.7866H25ZM4.89844 5.78467C5.13276 5.55046 5.51279 5.55039 5.74707 5.78467L6.64062 6.6792C6.87494 6.91351 6.87494 7.29352 6.64062 7.52783C6.40641 7.76163 6.02719 7.76163 5.79297 7.52783L4.89844 6.6333C4.66412 6.39899 4.66412 6.01898 4.89844 5.78467ZM21.2539 5.78467C21.4882 5.55046 21.8683 5.55039 22.1025 5.78467C22.3365 6.01897 22.3367 6.39908 22.1025 6.6333L21.208 7.52783C20.9738 7.76205 20.5937 7.76185 20.3594 7.52783C20.1251 7.29352 20.1251 6.91351 20.3594 6.6792L21.2539 5.78467ZM12.9004 4.16357V2.88623C12.9004 2.55486 13.1686 2.28662 13.5 2.28662C13.8314 2.28662 14.0996 2.55486 14.0996 2.88623V4.16357C14.0996 4.49495 13.8314 4.76416 13.5 4.76416C13.1686 4.76416 12.9004 4.49495 12.9004 4.16357Z" fill="#F3704D"/>
</svg>
