<svg width="26" height="28" xmlns="http://www.w3.org/2000/svg" fill="none">

 <g>
  <title>Layer 1</title>
  <path id="svg_1" fill="#121116" d="m13.5,7.39746c1.4668,0 2.8969,0.46166 4.0869,1.31934c1.1899,0.85767 2.0791,2.0685 2.543,3.46c0.4638,1.3915 0.4784,2.8938 0.041,4.2939c-0.4318,1.3821 -1.283,2.5941 -2.4336,3.4717c-0.3021,0.303 -0.5506,0.6535 -0.7373,1.0361c-0.0129,0.0357 -0.0287,0.0694 -0.0479,0.1016c-0.0547,0.121 -0.1042,0.2454 -0.1464,0.372c-0.1921,0.5765 -0.2453,1.19 -0.1563,1.7911c0.0043,0.029 0.0059,0.0585 0.0059,0.0879c0,0.8368 -0.3321,1.6396 -0.9239,2.2314c-0.5917,0.5918 -1.3945,0.9238 -2.2314,0.9238c-0.8369,0 -1.6397,-0.332 -2.2314,-0.9238c-0.5918,-0.5918 -0.9239,-1.3946 -0.9239,-2.2314c0,-0.0294 0.0016,-0.0589 0.0059,-0.0879c0.089,-0.6011 0.0358,-1.2146 -0.1563,-1.7911c-0.0419,-0.1258 -0.0921,-0.2488 -0.1464,-0.3691c-0.0208,-0.0345 -0.0383,-0.0708 -0.05181,-0.1094c-0.18647,-0.3806 -0.43347,-0.7295 -0.73437,-1.0312c-1.15027,-0.8775 -2.00093,-2.0898 -2.43262,-3.4717c-0.43736,-1.4001 -0.42284,-2.9024 0.04102,-4.2939c0.46383,-1.3915 1.35309,-2.60233 2.54297,-3.46c1.19001,-0.85768 2.62011,-1.31934 4.08691,-1.31934zm-2.0771,13.97854c0.1706,0.6436 0.212,1.315 0.123,1.9765c0.0056,0.5109 0.2096,0.9997 0.5713,1.3614c0.3667,0.3667 0.8642,0.5732 1.3828,0.5732c0.5186,0 1.0161,-0.2065 1.3828,-0.5732c0.3617,-0.3617 0.5647,-0.8505 0.5703,-1.3614c-0.089,-0.6614 -0.0466,-1.333 0.124,-1.9765l-4.1542,0zm2.0771,-12.77834c-1.215,0 -2.3991,0.38239 -3.3848,1.09277c-0.98553,0.71037 -1.72315,1.71267 -2.10739,2.86527c-0.38417,1.1525 -0.39535,2.397 -0.0332,3.5566c0.36223,1.1596 1.07993,2.1763 2.05179,2.9053c0.0219,0.0164 0.043,0.0344 0.0625,0.0537c0.3318,0.3285 0.614,0.701 0.8427,1.1045l5.1368,0c0.2287,-0.4035 0.5109,-0.776 0.8427,-1.1045c0.0195,-0.0193 0.0406,-0.0373 0.0625,-0.0537c0.9719,-0.729 1.6896,-1.7457 2.0518,-2.9053c0.3621,-1.1596 0.351,-2.4041 -0.0332,-3.5566c-0.3843,-1.1526 -1.1219,-2.1549 -2.1074,-2.86527c-0.9857,-0.71038 -2.1698,-1.09277 -3.3848,-1.09277zm-10.22266,5.18944c0.33137,0 0.60059,0.2682 0.60059,0.5996c0,0.3314 -0.26922,0.5996 -0.60059,0.5996l-1.27734,0c-0.33137,0 -0.59961,-0.2682 -0.59961,-0.5996c0,-0.3314 0.26824,-0.5996 0.59961,-0.5996l1.27734,0zm21.72266,0c0.3314,0 0.5996,0.2682 0.5996,0.5996c0,0.3314 -0.2682,0.5996 -0.5996,0.5996l-1.2773,0c-0.3314,0 -0.6006,-0.2682 -0.6006,-0.5996c0,-0.3314 0.2692,-0.5996 0.6006,-0.5996l1.2773,0zm-20.10156,-8.00194c0.23432,-0.23421 0.61435,-0.23428 0.84863,0l0.89355,0.89453c0.23432,0.23431 0.23432,0.61432 0,0.84863c-0.23421,0.2338 -0.61343,0.2338 -0.84765,0l-0.89453,-0.89453c-0.23432,-0.23432 -0.23432,-0.61432 0,-0.84863zm16.35546,0c0.2343,-0.23421 0.6144,-0.23428 0.8486,0c0.234,0.2343 0.2342,0.61441 0,0.84863l-0.8945,0.89453c-0.2342,0.23422 -0.6143,0.23401 -0.8486,0c-0.2343,-0.23431 -0.2343,-0.61432 0,-0.84863l0.8945,-0.89453zm-8.3535,-1.6211l0,-1.27734c0,-0.33137 0.2682,-0.59961 0.5996,-0.59961c0.3314,0 0.5996,0.26824 0.5996,0.59961l0,1.27734c0,0.33137 -0.2682,0.60059 -0.5996,0.60059c-0.3314,0 -0.5996,-0.26922 -0.5996,-0.60059z"/>
 </g>
</svg>