<svg width="33" height="24" viewBox="0 0 33 24" fill="none" xmlns="http://www.w3.org/2000/svg">
<path d="M16.8125 23.6221C23.3356 23.6221 28.6236 18.3341 28.6236 11.811C28.6236 10.7447 28.4823 9.71143 28.2173 8.72883C25.7451 11.0202 22.5638 13.604 18.781 15.9121C14.8752 18.2953 11.7829 19.9294 9.36417 20.9779C11.3963 22.6311 13.9887 23.6221 16.8125 23.6221Z" fill="#703DE8"/>
<path d="M6.48155 17.5402C5.53856 15.8434 5.00146 13.8899 5.00146 11.811C5.00146 5.28799 10.2895 0 16.8125 0C21.645 0 25.7996 2.90219 27.6285 7.05871C22.7836 10.2121 16.3634 13.9627 11.2381 16.3298C8.99776 17.3646 7.48402 17.6603 6.48155 17.5402Z" fill="#703DE8"/>
<path fill-rule="evenodd" clip-rule="evenodd" d="M1.13451 23.761C0.994524 23.5281 1.06991 23.2257 1.30288 23.0857L4.58281 21.115C4.81579 20.975 5.11813 21.0504 5.25811 21.2833C5.3981 21.5163 5.32272 21.8186 5.08974 21.9586L1.80981 23.9294C1.57683 24.0694 1.27449 23.994 1.13451 23.761Z" fill="#F56F8E"/>
<path fill-rule="evenodd" clip-rule="evenodd" d="M1.47651 21.2591C1.33652 21.0261 1.41191 20.7237 1.64488 20.5838L3.2824 19.5998C3.51537 19.4599 3.81771 19.5352 3.9577 19.7682C4.09768 20.0012 4.0223 20.3035 3.78933 20.4435L2.15181 21.4274C1.91883 21.5674 1.61649 21.492 1.47651 21.2591Z" fill="#F56F8E"/>
<path fill-rule="evenodd" clip-rule="evenodd" d="M0.0703659 22.1039C-0.0696185 21.871 0.00576379 21.5686 0.238737 21.4286C0.47171 21.2886 0.774043 21.364 0.914028 21.597C1.05401 21.83 0.97863 22.1323 0.745657 22.2723C0.512683 22.4123 0.21035 22.3369 0.0703659 22.1039Z" fill="#F56F8E"/>
<path d="M2.19816 22.5478C3.05126 24.8788 7.70567 24.9865 20.0032 17.4951C26.6883 13.4227 30.4026 8.57494 31.9756 6.14477C32.174 5.83835 31.791 5.5207 31.5013 5.74273C27.408 8.87969 17.7855 14.8619 10.715 18.1222C4.3834 21.0419 4.0621 17.8586 4.53731 16.3826C3.14798 17.946 2.1109 19.9394 2.05132 21.4878L4.07327 20.2729C4.30625 20.1329 4.60859 20.2083 4.74857 20.4413C4.88856 20.6742 4.81318 20.9766 4.5802 21.1166L2.19816 22.5478Z" fill="#F56F8E"/>
</svg>
