<svg width="93" height="16" viewBox="0 0 93 16" fill="none" xmlns="http://www.w3.org/2000/svg">
<path d="M6.50871 9.33107C6.71351 9.58706 6.9695 9.92626 7.2767 10.3487C7.59669 10.7582 7.92309 11.219 8.25588 11.731C8.58868 12.2302 8.91508 12.755 9.23507 13.3054C9.56787 13.8558 9.84946 14.387 10.0799 14.899H8.04469C7.78869 14.4126 7.50709 13.9198 7.1999 13.4206C6.9055 12.9214 6.60471 12.4478 6.29751 11.9998C5.99032 11.539 5.68312 11.1102 5.37593 10.7134C5.08153 10.3167 4.81273 9.97106 4.56954 9.67666C4.40314 9.68946 4.23034 9.69586 4.05114 9.69586C3.88475 9.69586 3.71195 9.69586 3.53275 9.69586H1.86237V14.899H0V1.78557C0.524793 1.65758 1.10718 1.57438 1.74718 1.53598C2.39997 1.48478 2.99516 1.45918 3.53275 1.45918C5.40152 1.45918 6.8223 1.81117 7.79509 2.51516C8.78068 3.21915 9.27347 4.26874 9.27347 5.66392C9.27347 6.54711 9.03667 7.3023 8.56308 7.92949C8.10229 8.55668 7.4175 9.02387 6.50871 9.33107ZM3.68635 3.09116C2.89276 3.09116 2.28477 3.11036 1.86237 3.14875V8.15988H3.18716C3.82715 8.15988 4.40314 8.12788 4.91513 8.06389C5.42712 7.99989 5.85592 7.87829 6.20151 7.69909C6.55991 7.51989 6.8351 7.2703 7.0271 6.9503C7.2191 6.61751 7.3151 6.18231 7.3151 5.64472C7.3151 5.14553 7.2191 4.72953 7.0271 4.39674C6.8351 4.06394 6.57271 3.80155 6.23991 3.60955C5.91992 3.41755 5.53592 3.28315 5.08793 3.20635C4.65273 3.12956 4.18554 3.09116 3.68635 3.09116Z" fill="#292631"/>
<path d="M20.0043 9.90706C20.0043 10.7006 19.8891 11.4174 19.6587 12.0574C19.4283 12.6974 19.1019 13.2478 18.6795 13.7086C18.2699 14.1694 17.7771 14.5278 17.2012 14.7838C16.6252 15.027 15.998 15.1486 15.3196 15.1486C14.6412 15.1486 14.014 15.027 13.438 14.7838C12.862 14.5278 12.3628 14.1694 11.9404 13.7086C11.5308 13.2478 11.2108 12.6974 10.9804 12.0574C10.75 11.4174 10.6348 10.7006 10.6348 9.90706C10.6348 9.12627 10.75 8.41588 10.9804 7.77589C11.2108 7.1231 11.5308 6.56631 11.9404 6.10551C12.3628 5.64472 12.862 5.29272 13.438 5.04953C14.014 4.79353 14.6412 4.66553 15.3196 4.66553C15.998 4.66553 16.6252 4.79353 17.2012 5.04953C17.7771 5.29272 18.2699 5.64472 18.6795 6.10551C19.1019 6.56631 19.4283 7.1231 19.6587 7.77589C19.8891 8.41588 20.0043 9.12627 20.0043 9.90706ZM18.1419 9.90706C18.1419 8.78067 17.8859 7.89109 17.374 7.2383C16.8748 6.57271 16.19 6.23991 15.3196 6.23991C14.4492 6.23991 13.758 6.57271 13.246 7.2383C12.7468 7.89109 12.4972 8.78067 12.4972 9.90706C12.4972 11.0334 12.7468 11.9294 13.246 12.595C13.758 13.2478 14.4492 13.5742 15.3196 13.5742C16.19 13.5742 16.8748 13.2478 17.374 12.595C17.8859 11.9294 18.1419 11.0334 18.1419 9.90706Z" fill="#292631"/>
<path d="M26.0876 15.1294C25.2812 15.1294 24.5709 15.0014 23.9565 14.7454C23.3549 14.4894 22.8429 14.131 22.4205 13.6702C22.0109 13.2094 21.7037 12.6654 21.4989 12.0382C21.2941 11.3982 21.1917 10.6942 21.1917 9.92626C21.1917 9.15827 21.3005 8.45428 21.5181 7.81429C21.7485 7.1743 22.0685 6.6239 22.4781 6.16311C22.8877 5.68952 23.3869 5.32472 23.9757 5.06873C24.5773 4.79993 25.2428 4.66553 25.9724 4.66553C26.4204 4.66553 26.8684 4.70393 27.3164 4.78073C27.7644 4.85753 28.1932 4.97913 28.6028 5.14553L28.1996 6.6623C27.9308 6.53431 27.6172 6.43191 27.2588 6.35511C26.9132 6.27831 26.542 6.23991 26.1452 6.23991C25.1468 6.23991 24.3789 6.55351 23.8413 7.1807C23.3165 7.80789 23.0541 8.72308 23.0541 9.92626C23.0541 10.4639 23.1117 10.9566 23.2269 11.4046C23.3549 11.8526 23.5469 12.2366 23.8029 12.5566C24.0717 12.8766 24.4109 13.1262 24.8205 13.3054C25.23 13.4718 25.7292 13.555 26.318 13.555C26.7916 13.555 27.2204 13.5102 27.6044 13.4206C27.9884 13.331 28.2892 13.235 28.5068 13.1326L28.7564 14.6302C28.654 14.6942 28.5068 14.7582 28.3148 14.8222C28.1228 14.8734 27.9052 14.9182 27.662 14.9566C27.4188 15.0078 27.1564 15.0462 26.8748 15.0718C26.606 15.1102 26.3436 15.1294 26.0876 15.1294Z" fill="#292631"/>
<path d="M33.5149 9.40787C33.8989 9.70226 34.3021 10.0671 34.7245 10.5022C35.1597 10.9374 35.5821 11.411 35.9917 11.923C36.4141 12.4222 36.8109 12.9342 37.1821 13.459C37.5533 13.971 37.8669 14.451 38.1229 14.899H36.0301C35.7613 14.451 35.4477 13.9966 35.0893 13.5358C34.7437 13.0622 34.3789 12.6142 33.9949 12.1918C33.6109 11.7566 33.2205 11.3598 32.8237 11.0014C32.4269 10.643 32.0494 10.3423 31.691 10.0991V14.899H29.9054V0.307195L31.691 0V9.10067C31.9981 8.79347 32.3373 8.45428 32.7085 8.08309C33.0797 7.71189 33.4445 7.3343 33.8029 6.9503C34.1613 6.56631 34.5005 6.20151 34.8205 5.85592C35.1405 5.49752 35.4157 5.18393 35.6461 4.91513H37.7389C37.4445 5.23513 37.1245 5.58712 36.7789 5.97111C36.4333 6.35511 36.0749 6.7455 35.7037 7.1423C35.3325 7.52629 34.9549 7.91669 34.5709 8.31348C34.1997 8.69748 33.8477 9.06227 33.5149 9.40787Z" fill="#292631"/>
<path d="M38.1055 9.92626C38.1055 9.04307 38.2335 8.27508 38.4895 7.62229C38.7455 6.9567 39.0847 6.40631 39.507 5.97111C39.9294 5.53592 40.4158 5.20953 40.9662 4.99193C41.5166 4.77433 42.0798 4.66553 42.6558 4.66553C43.9998 4.66553 45.0302 5.08793 45.747 5.93272C46.4637 6.7647 46.8221 8.03829 46.8221 9.75346C46.8221 9.83026 46.8221 9.93266 46.8221 10.0607C46.8221 10.1759 46.8157 10.2847 46.8029 10.3871H39.9678C40.0446 11.4238 40.3454 12.211 40.8702 12.7486C41.395 13.2862 42.2142 13.555 43.3278 13.555C43.955 13.555 44.4798 13.5038 44.9022 13.4014C45.3374 13.2862 45.6638 13.1774 45.8814 13.075L46.131 14.5726C45.9134 14.6878 45.5294 14.8094 44.979 14.9374C44.4414 15.0654 43.827 15.1294 43.1358 15.1294C42.2654 15.1294 41.5102 15.0014 40.8702 14.7454C40.243 14.4766 39.7246 14.1118 39.315 13.651C38.9055 13.1902 38.5983 12.6462 38.3935 12.019C38.2015 11.379 38.1055 10.6814 38.1055 9.92626ZM44.9598 8.94707C44.9726 8.14068 44.7678 7.48149 44.3454 6.9695C43.9358 6.44471 43.3662 6.18231 42.6366 6.18231C42.227 6.18231 41.8622 6.26551 41.5422 6.43191C41.235 6.58551 40.9726 6.7903 40.755 7.0463C40.5374 7.3023 40.3646 7.59669 40.2366 7.92949C40.1214 8.26228 40.0446 8.60148 40.0062 8.94707H44.9598Z" fill="#292631"/>
<path d="M50.2895 4.91513H54.0718V6.41271H50.2895V11.0206C50.2895 11.5198 50.3279 11.9358 50.4047 12.2686C50.4815 12.5886 50.5967 12.8446 50.7503 13.0366C50.9039 13.2158 51.0959 13.3438 51.3263 13.4206C51.5567 13.4974 51.8255 13.5358 52.1327 13.5358C52.6703 13.5358 53.0991 13.4782 53.419 13.363C53.7518 13.235 53.9822 13.1454 54.1102 13.0942L54.4558 14.5726C54.2766 14.6622 53.963 14.771 53.515 14.899C53.0671 15.0398 52.5551 15.1102 51.9791 15.1102C51.3007 15.1102 50.7375 15.027 50.2895 14.8606C49.8543 14.6814 49.5023 14.419 49.2335 14.0734C48.9647 13.7278 48.7727 13.3054 48.6575 12.8062C48.5551 12.2942 48.5039 11.7054 48.5039 11.0398V2.13117L50.2895 1.82397V4.91513Z" fill="#292631"/>
<path d="M61.6431 15.1678C59.48 15.1678 57.8288 14.5662 56.6896 13.363C55.5632 12.1598 55 10.4511 55 8.23668C55 7.1359 55.1728 6.15671 55.5184 5.29912C55.864 4.42874 56.3376 3.69915 56.9392 3.11036C57.5408 2.50876 58.2576 2.05437 59.0896 1.74717C59.9216 1.43998 60.8239 1.28638 61.7967 1.28638C62.3599 1.28638 62.8719 1.33118 63.3327 1.42078C63.7935 1.49758 64.1967 1.59358 64.5423 1.70878C64.8879 1.81117 65.1759 1.91997 65.4063 2.03517C65.6367 2.15037 65.8031 2.23997 65.9055 2.30397L65.0415 4.72313C64.6319 4.50554 64.1519 4.31994 63.6015 4.16634C63.0639 4.01274 62.4495 3.93594 61.7583 3.93594C61.2975 3.93594 60.8431 4.01274 60.3952 4.16634C59.96 4.31994 59.5696 4.56953 59.224 4.91513C58.8912 5.24793 58.6224 5.68312 58.4176 6.22071C58.2128 6.7583 58.1104 7.41109 58.1104 8.17908C58.1104 8.79347 58.1744 9.36947 58.3024 9.90706C58.4432 10.4319 58.6608 10.8862 58.9552 11.2702C59.2624 11.6542 59.6592 11.9614 60.1456 12.1918C60.632 12.4094 61.2207 12.5182 61.9119 12.5182C62.3471 12.5182 62.7375 12.4926 63.0831 12.4414C63.4287 12.3902 63.7359 12.3326 64.0047 12.2686C64.2735 12.1918 64.5103 12.1086 64.7151 12.019C64.9199 11.9294 65.1055 11.8462 65.2719 11.7694L66.0975 14.1694C65.6751 14.4254 65.0799 14.6558 64.3119 14.8606C63.5439 15.0654 62.6543 15.1678 61.6431 15.1678Z" fill="#292631"/>
<path d="M70.253 12.4606C70.3938 12.4734 70.5538 12.4862 70.733 12.499C70.925 12.499 71.149 12.499 71.405 12.499C72.9026 12.499 74.0098 12.1214 74.7266 11.3662C75.4561 10.611 75.8209 9.56786 75.8209 8.23668C75.8209 6.8415 75.4753 5.78552 74.7841 5.06873C74.093 4.35194 72.9986 3.99354 71.501 3.99354C71.2962 3.99354 71.085 3.99994 70.8674 4.01274C70.6498 4.01274 70.445 4.02554 70.253 4.05114V12.4606ZM78.9121 8.23668C78.9121 9.38867 78.7329 10.3935 78.3745 11.251C78.0161 12.1086 77.5041 12.819 76.8385 13.3822C76.1857 13.9454 75.3857 14.3678 74.4386 14.6494C73.4914 14.931 72.429 15.0718 71.2514 15.0718C70.7138 15.0718 70.0866 15.0462 69.3698 14.995C68.653 14.9566 67.949 14.867 67.2579 14.7262V1.76637C67.949 1.63838 68.6658 1.55518 69.4082 1.51678C70.1634 1.46558 70.8098 1.43998 71.3474 1.43998C72.4866 1.43998 73.517 1.56798 74.4386 1.82397C75.3729 2.07997 76.1729 2.48316 76.8385 3.03356C77.5041 3.58395 78.0161 4.28794 78.3745 5.14553C78.7329 6.00311 78.9121 7.0335 78.9121 8.23668Z" fill="#292631"/>
<path d="M89.5738 14.899C88.7162 13.3758 87.7882 11.8718 86.7898 10.3871C85.7914 8.90227 84.7291 7.50069 83.6027 6.18231V14.899H80.6459V1.59358H83.0843C83.5067 2.01597 83.9739 2.53436 84.4859 3.14875C84.9979 3.76315 85.5162 4.42234 86.041 5.12633C86.5786 5.81752 87.1098 6.54071 87.6346 7.2959C88.1594 8.03829 88.6522 8.75507 89.113 9.44627V1.59358H92.089V14.899H89.5738Z" fill="#292631"/>
</svg>
