<?xml version="1.0" encoding="UTF-8"?>
<svg xmlns="http://www.w3.org/2000/svg" xmlns:xlink="http://www.w3.org/1999/xlink" width="16px" height="16px" viewBox="0 0 16 16" version="1.1">
<g id="surface1">
<path style=" stroke:none;fill-rule:nonzero;fill:rgb(44.705883%,46.666667%,48.627451%);fill-opacity:1;" d="M 16 8 C 16 8.027344 16 8.054688 16 8.085938 C 15.988281 9.226562 14.949219 10 13.808594 10 L 10.75 10 C 9.921875 10 9.25 10.671875 9.25 11.5 C 9.25 11.605469 9.261719 11.710938 9.28125 11.808594 C 9.347656 12.128906 9.484375 12.433594 9.617188 12.742188 C 9.808594 13.175781 9.996094 13.601562 9.996094 14.054688 C 9.996094 15.050781 9.320312 15.953125 8.328125 15.992188 C 8.21875 15.996094 8.109375 16 7.996094 16 C 3.582031 16 0 12.417969 0 8 C 0 3.582031 3.582031 0 8 0 C 12.417969 0 16 3.582031 16 8 Z M 4 9 C 4 8.449219 3.550781 8 3 8 C 2.449219 8 2 8.449219 2 9 C 2 9.550781 2.449219 10 3 10 C 3.550781 10 4 9.550781 4 9 Z M 4 6 C 4.550781 6 5 5.550781 5 5 C 5 4.449219 4.550781 4 4 4 C 3.449219 4 3 4.449219 3 5 C 3 5.550781 3.449219 6 4 6 Z M 9 3 C 9 2.449219 8.550781 2 8 2 C 7.449219 2 7 2.449219 7 3 C 7 3.550781 7.449219 4 8 4 C 8.550781 4 9 3.550781 9 3 Z M 12 6 C 12.550781 6 13 5.550781 13 5 C 13 4.449219 12.550781 4 12 4 C 11.449219 4 11 4.449219 11 5 C 11 5.550781 11.449219 6 12 6 Z M 12 6 "/>
</g>
</svg>
