<svg width="14" height="16" viewBox="0 0 14 16" fill="none" xmlns="http://www.w3.org/2000/svg">
<g clip-path="url(#clip0_8285_156612)">
<path d="M1.28135 1.21943C0.987598 0.928809 0.512598 0.928809 0.218848 1.21943C-0.0749023 1.51006 -0.0717774 1.98818 0.218848 2.28193L5.9376 8.00068L0.218848 13.7194C-0.0749023 14.0132 -0.0749023 14.4882 0.218848 14.7788C0.512598 15.0694 0.987598 15.0726 1.27822 14.7788L6.99697 9.06006L12.7188 14.7819C13.0126 15.0757 13.4876 15.0757 13.7782 14.7819C14.0688 14.4882 14.072 14.0132 13.7782 13.7226L8.05947 8.00381L13.7813 2.28193C14.0751 1.98818 14.0751 1.51318 13.7813 1.22256C13.4876 0.931934 13.0126 0.928809 12.722 1.22256L7.00322 6.94131L1.28135 1.21943Z" fill="#0C0F1F"/>
</g>
<defs>
<clipPath id="clip0_8285_156612">
<rect width="14" height="16" fill="white"/>
</clipPath>
</defs>
</svg>
