<svg width="18" height="15" viewBox="0 0 18 15" fill="none" xmlns="http://www.w3.org/2000/svg">
<path d="M7.33333 6.99992C9.17428 6.99992 10.6667 5.50753 10.6667 3.66659C10.6667 1.82564 9.17428 0.333252 7.33333 0.333252C5.49238 0.333252 4 1.82564 4 3.66659C4 5.50753 5.49238 6.99992 7.33333 6.99992Z" fill="white"/>
<path d="M7.8915 7.84992C7.70817 7.84159 7.52484 7.83325 7.33317 7.83325C5.3165 7.83325 3.43317 8.39158 1.82484 9.34992C1.0915 9.78325 0.666504 10.5999 0.666504 11.4583V13.6666H8.38317C7.72484 12.7249 7.33317 11.5749 7.33317 10.3333C7.33317 9.44158 7.5415 8.60825 7.8915 7.84992Z" fill="white"/>
<path d="M16.2915 10.3333C16.2915 10.1499 16.2665 9.98326 16.2415 9.80826L17.1915 8.9666L16.3581 7.52493L15.1498 7.93326C14.8831 7.70826 14.5831 7.53326 14.2498 7.40826L13.9998 6.1666H12.3331L12.0831 7.40826C11.7498 7.53326 11.4498 7.70826 11.1831 7.93326L9.97481 7.52493L9.14148 8.9666L10.0915 9.80826C10.0665 9.98326 10.0415 10.1499 10.0415 10.3333C10.0415 10.5166 10.0665 10.6833 10.0915 10.8583L9.14148 11.6999L9.97481 13.1416L11.1831 12.7333C11.4498 12.9583 11.7498 13.1333 12.0831 13.2583L12.3331 14.4999H13.9998L14.2498 13.2583C14.5831 13.1333 14.8831 12.9583 15.1498 12.7333L16.3581 13.1416L17.1915 11.6999L16.2415 10.8583C16.2665 10.6833 16.2915 10.5166 16.2915 10.3333ZM13.1665 11.9999C12.2498 11.9999 11.4998 11.2499 11.4998 10.3333C11.4998 9.4166 12.2498 8.6666 13.1665 8.6666C14.0831 8.6666 14.8331 9.4166 14.8331 10.3333C14.8331 11.2499 14.0831 11.9999 13.1665 11.9999Z" fill="white"/>
</svg>
