<svg width="20" height="20" viewBox="0 0 20 20" fill="none" xmlns="http://www.w3.org/2000/svg">
<path d="M9.99984 1.66675C5.39984 1.66675 1.6665 5.40008 1.6665 10.0001C1.6665 14.6001 5.39984 18.3334 9.99984 18.3334C14.5998 18.3334 18.3332 14.6001 18.3332 10.0001C18.3332 5.40008 14.5998 1.66675 9.99984 1.66675ZM10.8332 15.8334H9.1665V14.1667H10.8332V15.8334ZM12.5582 9.37508L11.8082 10.1417C11.2082 10.7501 10.8332 11.2501 10.8332 12.5001H9.1665V12.0834C9.1665 11.1667 9.5415 10.3334 10.1415 9.72508L11.1748 8.67508C11.4832 8.37508 11.6665 7.95842 11.6665 7.50008C11.6665 6.58342 10.9165 5.83342 9.99984 5.83342C9.08317 5.83342 8.33317 6.58342 8.33317 7.50008H6.6665C6.6665 5.65841 8.15817 4.16675 9.99984 4.16675C11.8415 4.16675 13.3332 5.65841 13.3332 7.50008C13.3332 8.23342 13.0332 8.90008 12.5582 9.37508Z" fill="white"/>
</svg>
