<svg width="50" height="49" fill="none" xmlns="http://www.w3.org/2000/svg"><path d="M31.797 10.777c-.469-.187-.844-.75-.844-1.312 0-.563.375-1.125.844-1.313L36.39 5.81l2.25-4.5c.562-1.032 2.156-1.032 2.718 0l2.25 4.5 4.594 2.343c.469.188.844.75.844 1.313 0 .562-.375 1.125-.844 1.312l-4.594 2.344-2.25 4.5c-.28.469-.75.844-1.312.844-.656 0-1.125-.375-1.406-.844l-2.25-4.5-4.594-2.344Zm6.375-2.53-2.344 1.218 2.344 1.125c.281.187.562.375.656.656l1.219 2.344 1.125-2.344c.094-.281.375-.469.656-.656l2.344-1.125-2.344-1.219a1.132 1.132 0 0 1-.656-.656l-1.125-2.25-1.219 2.25a1.132 1.132 0 0 1-.656.656Zm10.031 29.905c.469.282.844.75.844 1.313 0 .656-.375 1.125-.844 1.406l-4.594 2.25-2.25 4.594c-.28.469-.75.75-1.312.75-.656 0-1.125-.281-1.406-.75l-2.25-4.594-4.594-2.25c-.469-.281-.844-.75-.844-1.406 0-.563.375-1.031.844-1.313l4.594-2.25 2.25-4.593c.562-1.032 2.156-1.032 2.718 0l2.25 4.593 4.594 2.25Zm-6.375 2.532 2.344-1.22-2.344-1.124c-.281-.188-.562-.375-.656-.656l-1.125-2.344-1.219 2.344c-.094.28-.375.468-.656.656l-2.344 1.125 2.344 1.219c.281.093.562.375.656.656l1.219 2.344 1.125-2.344c.094-.281.375-.563.656-.656Zm-4.781-16.22c-.094.563-.375 1.126-.844 1.313L25.61 31.121l-5.25 10.594c-.28.469-.75.75-1.312.75-.656 0-1.125-.281-1.406-.75L12.39 31.12 1.797 25.777c-.469-.187-.844-.75-.844-1.312 0-.563.375-1.125.844-1.313L12.39 17.81l5.25-10.5c.562-1.032 2.156-1.032 2.718 0l5.25 10.5 10.594 5.343c.469.188.75.75.844 1.313Zm-13.219 4.22 8.344-4.22-8.344-4.124c-.281-.188-.562-.375-.656-.656l-4.125-8.344-4.219 8.344c-.094.28-.375.468-.656.656l-8.344 4.125 8.344 4.219c.281.093.562.375.656.656l4.219 8.344 4.125-8.344c.094-.281.375-.563.656-.656Z" fill="#7A30E2"/></svg>