<svg width="36" height="37" viewBox="0 0 36 37" fill="none" xmlns="http://www.w3.org/2000/svg">
  <rect y="0.944214" width="36" height="36" rx="2.50777" fill="#235AF3"/>
  <path d="M17.9997 12.5789C17.6625 12.5781 17.3286 12.6441 17.017 12.7729C16.7054 12.9018 16.4223 13.091 16.1839 13.3297C15.9455 13.5683 15.7566 13.8518 15.6279 14.1638C15.4992 14.4759 15.4334 14.8103 15.4341 15.1478V30.0032C15.4376 30.1279 15.4887 30.2467 15.5768 30.3349C15.665 30.4232 15.7835 30.4743 15.9082 30.4779C17.1426 30.4756 18.3259 29.9836 19.1988 29.1096C20.0717 28.2355 20.563 27.0507 20.5652 25.8146V15.1478C20.566 14.8103 20.5001 14.4759 20.3715 14.1638C20.2428 13.8518 20.0538 13.5683 19.8155 13.3297C19.5771 13.091 19.2939 12.9018 18.9824 12.7729C18.6707 12.6441 18.3368 12.5781 17.9997 12.5789Z" fill="white"/>
  <path d="M10.5541 19.8391C10.217 19.8383 9.88304 19.9043 9.57144 20.0331C9.25984 20.1619 8.97672 20.3511 8.73833 20.5898C8.49995 20.8285 8.311 21.112 8.18233 21.424C8.05365 21.7361 7.9878 22.0705 7.98853 22.408V30.2825C7.99204 30.4072 8.04312 30.526 8.13127 30.6142C8.21943 30.7025 8.33798 30.7536 8.46261 30.7572C9.69706 30.7549 10.8803 30.2629 11.7532 29.3889C12.6261 28.5148 13.1175 27.33 13.1197 26.0939V22.408C13.1204 22.0705 13.0546 21.7361 12.9259 21.424C12.7972 21.112 12.6083 20.8285 12.3699 20.5898C12.1315 20.3511 11.8484 20.1619 11.5368 20.0331C11.2252 19.9043 10.8912 19.8383 10.5541 19.8391Z" fill="white"/>
  <path d="M25.446 6.40784C25.1088 6.40711 24.7749 6.47305 24.4633 6.60189C24.1517 6.73074 23.8686 6.91994 23.6302 7.15863C23.3918 7.39733 23.2028 7.68083 23.0742 7.99284C22.9455 8.30485 22.8796 8.63924 22.8804 8.97681V30.1708C22.8839 30.2956 22.935 30.4143 23.0231 30.5026C23.1113 30.5908 23.2298 30.642 23.3545 30.6455C24.5889 30.6433 25.7722 30.1513 26.6451 29.2772C27.518 28.4032 28.0093 27.2183 28.0115 25.9823V8.97681C28.0123 8.63924 27.9464 8.30485 27.8177 7.99284C27.6891 7.68083 27.5001 7.39733 27.2617 7.15863C27.0234 6.91994 26.7402 6.73074 26.4286 6.60189C26.117 6.47305 25.7831 6.40711 25.446 6.40784Z" fill="white"/>
</svg>
