<svg width="235" height="266" viewBox="0 0 235 266" fill="none" xmlns="http://www.w3.org/2000/svg">
	<path
		d="M82.4044 -228.184C60.4977 -215.537 53.0184 -187.82 65.6215 -165.99L253.185 158.88C255.409 162.732 260.823 164.172 264.689 161.94C304.207 139.124 317.888 88.4229 295.153 49.0447L144.657 -211.622C132.054 -233.451 104.311 -240.832 82.4044 -228.184Z"
		fill="#235AF3"
	/>
	<path
		d="M50.3272 -80.116C28.4206 -67.4682 20.9412 -39.7514 33.5443 -17.9221L165.012 209.787C167.236 213.639 172.649 215.079 176.515 212.847C216.033 190.031 229.715 139.33 206.98 99.9517L112.58 -63.5535C99.9771 -85.3827 72.2339 -92.7639 50.3272 -80.116Z"
		fill="#FFB000"
	/>
	<path
		d="M23.3941 78.1085C1.48747 90.7564 -5.99187 118.473 6.61124 140.302L76.299 261.005C78.5231 264.857 83.9364 266.298 87.8023 264.066C127.32 241.25 141.002 190.548 118.267 151.17L85.6471 94.6711C73.044 72.8418 45.3008 65.4607 23.3941 78.1085Z"
		fill="#0D9DFF"
	/>
</svg>
