<svg width="14" height="14" viewBox="0 0 14 14" fill="none" xmlns="http://www.w3.org/2000/svg">
<path d="M9.83978 4.05333L5.44645 8.44667L3.05311 6.06L2.11311 7L5.44645 10.3333L10.7798 5L9.83978 4.05333ZM6.77978 0.333332C3.09978 0.333332 0.113113 3.32 0.113113 7C0.113113 10.68 3.09978 13.6667 6.77978 13.6667C10.4598 13.6667 13.4464 10.68 13.4464 7C13.4464 3.32 10.4598 0.333332 6.77978 0.333332ZM6.77978 12.3333C3.83311 12.3333 1.44645 9.94667 1.44645 7C1.44645 4.05333 3.83311 1.66667 6.77978 1.66667C9.72645 1.66667 12.1131 4.05333 12.1131 7C12.1131 9.94667 9.72645 12.3333 6.77978 12.3333Z" fill="#204522"/>
</svg>
