<svg width="16" height="16" viewBox="0 0 16 16" fill="none" xmlns="http://www.w3.org/2000/svg">
<path d="M8.27228 0.5C4.13229 0.5 0.779785 3.86 0.779785 8C0.779785 12.14 4.13229 15.5 8.27228 15.5C12.4198 15.5 15.7798 12.14 15.7798 8C15.7798 3.86 12.4198 0.5 8.27228 0.5ZM8.27979 14C4.96479 14 2.27979 11.315 2.27979 8C2.27979 4.685 4.96479 2 8.27979 2C11.5948 2 14.2798 4.685 14.2798 8C14.2798 11.315 11.5948 14 8.27979 14Z" fill="#0071BC"/>
<path d="M8.65479 4.25H7.52979V8.75L11.4673 11.1125L12.0298 10.19L8.65479 8.1875V4.25Z" fill="#0071BC"/>
</svg>
