<?xml version="1.0" encoding="utf-8"?><svg width="21" height="21" viewBox="0 0 21 21" fill="#a7aaad" xmlns="http://www.w3.org/2000/svg"><mask id="mask0" mask-type="alpha" maskUnits="userSpaceOnUse" x="2" y="1" width="17" height="20"><path fill-rule="evenodd" clip-rule="evenodd" d="M11.5906 2.03703L17.1793 5.44824C17.894 5.884 18.4767 6.95298 18.4767 7.82451V14.6503C18.4767 15.5185 17.894 16.5874 17.1793 17.0232L11.5906 20.431C10.8792 20.8668 9.71055 20.8668 8.99909 20.431L3.41041 17.0198C2.69573 16.584 2.11304 15.5185 2.11304 14.6469V7.8211C2.11304 6.95298 2.69895 5.884 3.41041 5.44824L8.99909 2.03703C9.71055 1.60126 10.8792 1.60126 11.5906 2.03703ZM15.7494 9.37503H8.81049C8.38299 9.37503 8.06237 9.50164 7.80904 9.77068C7.25488 10.3602 6.96196 11.5036 6.91842 12.1406H13.7505V10.4275H15.7019V14.0912H4.84031C4.84031 14.0912 4.87989 10.0397 6.39197 8.43339C7.01738 7.76475 7.8407 7.42449 8.83028 7.42449H15.7494V9.37503Z" fill="#46ba69"/></mask><g mask="url(#mask0)"><rect x="0.294922" y="0.757812" width="20" height="20" fill="#46ba69"/></g></svg>
