<?xml version="1.0" encoding="UTF-8"?>
<svg width="43px" height="43px" viewBox="0 0 43 43" version="1.1" xmlns="http://www.w3.org/2000/svg" xmlns:xlink="http://www.w3.org/1999/xlink">
    <!-- Generator: Sketch 53.1 (72631) - https://sketchapp.com -->
    <title>Group 139</title>
    <desc>Created with Sketch.</desc>
    <g id="Page-1" stroke="none" stroke-width="1" fill="none" fill-rule="evenodd">
        <g id="BB-Web-Home-2019-V4" transform="translate(-214.000000, -20141.000000)">
            <g id="Group-45" transform="translate(0.000000, 19702.000000)">
                <g id="Group-27" transform="translate(0.000000, 417.000000)">
                    <g id="logo" transform="translate(214.000000, 22.000000)">
                        <g id="Group-139">
                            <path d="M42.5454072,21.2872165 C42.5454072,33.0439485 33.0214202,42.5748763 21.2722606,42.5748763 C9.52354397,42.5748763 -2.0250468e-13,33.0439485 -2.0250468e-13,21.2872165 C-2.0250468e-13,9.53092784 9.52354397,-9.45021839e-13 21.2722606,-9.45021839e-13 C33.0214202,-9.45021839e-13 42.5454072,9.53092784 42.5454072,21.2872165" id="Fill-1" fill="#DF613C"></path>
                            <path d="M13.011612,23.3924433 C13.0426218,20.8820412 14.8274556,18.7883402 17.1518595,18.3308557 L16.542739,21.6352062 C16.4355338,22.205732 16.3730713,22.7926598 16.3650973,23.3924433 C16.3420615,25.2760206 16.8377749,27.0368041 17.7153514,28.5355979 C15.0657879,28.3955155 12.9770582,26.1457732 13.011612,23.3924433 M26.1092537,13.5223918 C24.8653188,13.5223918 23.6727716,13.768866 22.5745827,14.2121649 L22.7340615,13.347732 C22.7340615,13.347732 23.8083286,8.70240206 19.404941,8.42268041 C19.0536446,8.42445361 18.9437814,8.60531959 18.8985957,8.84913402 L18.036524,13.5285979 C16.8373319,13.545 15.6881983,13.7839381 14.6272211,14.2121649 L14.7866999,13.347732 C14.7866999,13.347732 15.860967,8.70240206 11.4575794,8.42268041 C11.108055,8.42401031 10.9973058,8.60354639 10.9525631,8.84514433 L8.59537746,21.6352062 C8.48817224,22.205732 8.42482371,22.7926598 8.41773576,23.3924433 C8.34995726,28.8343814 12.6102569,33.2620515 17.9146999,33.2620515 C23.2204719,33.2620515 27.5915208,28.8343814 27.6597423,23.3924433 C27.6779051,21.9242371 27.3217358,20.9325773 26.6891364,20.3536289 C25.8394687,19.5769691 24.3496706,19.7307938 23.6333449,20.6914227 C22.9706218,21.5784639 23.071625,22.936732 23.0654231,23.3924433 C23.0508042,24.5773814 22.6414752,25.6670103 21.9734361,26.5389794 C21.3266608,25.6670103 20.9447977,24.5773814 20.9594165,23.3924433 C20.9948563,20.5486804 23.2793905,18.2355464 26.0507781,18.2355464 C28.8226087,18.2355464 31.0486674,20.5486804 31.0136706,23.3924433 C30.9901918,25.2423299 30.014713,26.8670206 28.5727586,27.7766701 C28.4730843,27.8391753 28.2148172,27.9938866 28.0114817,28.2164227 C27.837384,28.4074845 27.7129019,28.6659278 27.6570843,28.7683299 C26.8043156,30.3407113 25.6006934,31.6870103 24.159182,32.6972887 C24.0772276,32.7549175 23.9305957,32.8661856 23.9766674,32.9796701 C24.019195,33.0838454 24.2544263,33.1219691 24.3572016,33.1383711 C24.847156,33.2194948 25.3499573,33.2620515 25.8629475,33.2620515 C31.1673905,33.2620515 35.5393253,28.8343814 35.6071038,23.3924433 C35.6753253,17.9505052 31.4150257,13.5223918 26.1092537,13.5223918" id="Fill-4" fill="#FEFEFE"></path>
                        </g>
                    </g>
                </g>
            </g>
        </g>
    </g>
</svg>