<?xml version="1.0" encoding="utf-8"?>
<!-- Generator: Adobe Illustrator 24.0.1, SVG Export Plug-In . SVG Version: 6.00 Build 0)  -->
<svg version="1.1" id="Layer_1" xmlns="http://www.w3.org/2000/svg" xmlns:xlink="http://www.w3.org/1999/xlink" x="0px" y="0px"
	 viewBox="0 0 507.4 89.7" style="enable-background:new 0 0 507.4 89.7;" xml:space="preserve">
<style type="text/css">
	.st0{fill:#235AF3;}
	.st1{fill:#333333;}
	.st2{fill:#FFB000;}
	.st3{fill:#0D9DFF;}
</style>
<path class="st0" d="M63,1L63,1c-5.1,0-9.2,4.1-9.2,9.2v75.9c0,0.9,0.8,1.7,1.7,1.7l0,0c9.2,0,16.7-7.5,16.7-16.7V10.2
	C72.2,5.1,68.1,1,63,1z"/>
<g>
	<polygon class="st1" points="112.1,0.6 99.1,0.6 99.1,88 137.1,88 137.1,77 112.1,77 	"/>
	<path class="st1" d="M161.5,25.5c-6.8,0-12,1.9-15.3,5.6c-3.3,3.7-5,9.4-5,17v17.5c0,8.6,1.5,14.7,4.5,18.3s8.3,5.4,15.7,5.4
		c7,0,12.2-1.5,15.5-4.5s4.9-7.6,4.6-13.7v-2.4h-12.4v2.4c0.1,2.9-0.5,5.1-1.7,6.4s-3.2,2-6,2c-3.2,0-5.3-0.8-6.2-2.5
		c-1-1.8-1.6-5.6-1.6-11.4v-3.8h28.1V48c0-7.7-1.6-13.5-4.9-17.1C173.6,27.3,168.4,25.5,161.5,25.5z M155.6,38.1
		c1.2-2,3.1-2.9,5.9-2.9c3,0,5,0.9,6.1,2.6c1.2,1.8,1.7,5.3,1.7,10.4v4.1h-15.7v-4.1C153.7,43.5,154.3,40.1,155.6,38.1z"/>
	<path class="st1" d="M208.1,25.5c-6.2,0-11.1,1.7-14.5,5s-5.1,8-4.9,13.9V45H201v-0.6c0-3,0.6-5.3,1.9-6.9c1.3-1.6,3-2.3,5.3-2.3
		c2.2,0,3.9,0.7,5,2.1c1.2,1.4,1.8,3.5,1.8,6.2V50h-0.6c-9.9,0-16.9,1.6-20.9,4.8s-6,8.9-6,16.9c0,0,0,0,0,0.1c0,0,0,0,0,0.1
		c0,5.6,1.3,9.9,3.7,12.9c2.5,3,6.1,4.6,10.9,4.6c6.2,0,10.6-1.9,13.2-5.6V88h12.4V44.4c0-6.5-1.6-11.3-4.7-14.3
		C219.7,27,214.8,25.5,208.1,25.5z M215.1,59.5v4.9c0.2,5-0.6,8.9-2.1,11.4s-3.8,3.7-6.9,3.7c-2.2,0-3.8-0.6-4.8-1.8
		c-1-1.3-1.5-3.4-1.5-6.5c0-3.8,1.1-6.8,3.4-8.8c2.2-2,5.6-3,10-3h1.9V59.5z"/>
	<path class="st1" d="M248.5,32.1l-0.4,0.5v-5.9h-12.4V88h12.4V54.3c0-6.2,1-10.5,2.9-12.9c1.9-2.3,5.4-3.5,10.3-3.5h0.6V25.5h-0.6
		C256.3,25.6,252,27.8,248.5,32.1z"/>
	<path class="st1" d="M292,25.5c-4.9,0-9.2,1.8-12.9,5.3v-4h-12.4V88h12.4V47.6c0-4.3,0.7-7.5,2.1-9.5s3.5-2.9,6.4-2.9
		c2.4,0,4.1,0.7,5.3,2.3c1.2,1.6,1.9,3.9,1.9,6.9V88H307V40.5c0-4.8-1.3-8.5-3.9-11.1C300.5,26.8,296.7,25.5,292,25.5z"/>
	<path class="st1" d="M338.1,0.6h-21.6V88h28.2c7.8,0,13.5-2.2,17-6.6c3.5-4.3,5.2-11.5,5.2-21.1V26.7c0-9.1-2.3-15.8-6.8-19.9
		C355.5,2.7,348.2,0.6,338.1,0.6z M353.8,26.9v33.6c0,6.3-1,10.6-2.9,13s-5.3,3.5-10.1,3.5h-11.3V11.6h10.1c5.4,0,9.1,1.1,11.2,3.3
		C352.8,17.1,353.8,21.1,353.8,26.9z"/>
	<path class="st1" d="M396.1,25.5c-6.2,0-11.1,1.7-14.5,5s-5.1,8-4.9,13.9V45H389v-0.6c0-3,0.6-5.3,1.9-6.9c1.3-1.6,3-2.3,5.3-2.3
		c2.2,0,3.9,0.7,5,2.1c1.2,1.4,1.8,3.5,1.8,6.2V50h-0.6c-9.9,0-16.9,1.6-20.9,4.8s-6,8.9-6,16.9c0,0,0,0,0,0.1c0,0,0,0,0,0.1
		c0,5.6,1.3,9.9,3.7,12.9c2.5,3,6.1,4.6,10.9,4.6c6.2,0,10.6-1.9,13.2-5.6V88h12.4V44.4c0-6.5-1.6-11.3-4.7-14.3
		C407.7,27,402.8,25.5,396.1,25.5z M403.1,59.5v4.9c0.2,5-0.6,8.9-2.1,11.4s-3.8,3.7-6.9,3.7c-2.2,0-3.8-0.6-4.8-1.8
		c-1-1.3-1.5-3.4-1.5-6.5c0-3.8,1.1-6.8,3.4-8.8c2.2-2,5.6-3,10-3h1.9V59.5z"/>
	<path class="st1" d="M444.2,51c-3.8-2.7-6.2-4.7-7.3-5.9c-1-1.2-1.4-2.7-1.4-4.6c0-1.8,0.5-3.2,1.4-4c0.9-0.9,2.4-1.3,4.3-1.3
		c2.1,0,3.6,0.6,4.5,1.8s1.3,3.3,1.2,6.1v2.4h12.2V42c0-5.4-1.3-9.5-4.1-12.2c-2.9-2.8-7.5-4.2-13.9-4.2c-5.7,0-10.1,1.4-13.2,4.2
		s-4.7,6.8-4.7,11.9c0,3.5,1,6.7,2.9,9.2s5.7,5.8,11.3,9.7c4.2,2.9,7,5.3,8.3,6.9s2,3.4,2,5.4c0,2.3-0.6,4-1.7,5
		c-1.1,1.1-2.9,1.7-5.3,1.7c-2.5,0-4.3-0.7-5.5-2.1s-1.7-3.7-1.5-6.7v-2.4h-12.2v3.4c0,5.6,1.5,9.9,4.6,12.8
		c3.2,3.1,8.1,4.6,14.7,4.6c6.1,0,10.9-1.6,14.2-4.7c3.3-3.2,5-7.7,5-13.5c0-3.5-1.1-6.7-3.3-9.4C454.7,59,450.5,55.4,444.2,51z"/>
	<path class="st1" d="M502.8,29.5c-2.6-2.6-6.4-4-11.2-4c-4.5,0-8.8,1.9-12.5,5.7V0.6h-12.4V88h12.4V47.6c0-4.3,0.7-7.5,2.1-9.5
		s3.4-2.9,6.4-2.9c2.3,0,4.1,0.7,5.2,2.2c1.2,1.5,1.8,3.8,1.8,6.8V88h12.2V40.7C506.7,35.9,505.4,32.1,502.8,29.5z"/>
</g>
<path class="st2" d="M36.3,23.7L36.3,23.7c-5.1,0-9.2,4.1-9.2,9.2v53.2c0,0.9,0.8,1.7,1.7,1.7l0,0c9.2,0,16.7-7.5,16.7-16.7V32.9
	C45.5,27.8,41.4,23.7,36.3,23.7z"/>
<path class="st3" d="M9.6,48.7L9.6,48.7c-5.1,0-9.2,4.1-9.2,9.2v28.2c0,0.9,0.8,1.7,1.7,1.7l0,0c9.2,0,16.7-7.5,16.7-16.7V57.9
	C18.8,52.8,14.7,48.7,9.6,48.7z"/>
</svg>
