<svg width="146" height="23" viewBox="0 0 146 23" fill="none" xmlns="http://www.w3.org/2000/svg">
<path d="M9.94616 5.81515C9.62806 5.81445 9.31295 5.87659 9.01893 5.99801C8.72491 6.11942 8.45777 6.29771 8.23284 6.52264C8.0079 6.74757 7.82961 7.01471 7.7082 7.30873C7.58679 7.60275 7.52465 7.91786 7.52534 8.23596V22.2346C7.52866 22.3522 7.57685 22.464 7.66003 22.5472C7.74321 22.6304 7.85508 22.6786 7.97267 22.6819V22.6819C9.13747 22.6798 10.254 22.2162 11.0776 21.3925C11.9012 20.5689 12.3649 19.4524 12.367 18.2876V8.23596C12.3677 7.91786 12.3055 7.60275 12.1841 7.30873C12.0627 7.01471 11.8844 6.74757 11.6595 6.52264C11.4345 6.29771 11.1674 6.11942 10.8734 5.99801C10.5794 5.87659 10.2643 5.81445 9.94616 5.81515V5.81515Z" fill="#1E1E1E"/>
<path d="M2.92082 12.6566C2.60272 12.6559 2.28761 12.7181 1.99359 12.8395C1.69957 12.9609 1.43243 13.1392 1.2075 13.3641C0.982567 13.589 0.804278 13.8562 0.682866 14.1502C0.561455 14.4442 0.499312 14.7593 0.500006 15.0774V22.4977C0.50332 22.6153 0.551513 22.7272 0.634695 22.8104C0.717877 22.8936 0.82974 22.9418 0.94733 22.9451V22.9451C2.11213 22.943 3.22863 22.4793 4.05227 21.6557C4.8759 20.8321 5.33954 19.7156 5.34163 18.5508V15.0774C5.34232 14.7593 5.28018 14.4442 5.15877 14.1502C5.03736 13.8562 4.85907 13.589 4.63414 13.3641C4.40921 13.1392 4.14206 12.9609 3.84804 12.8395C3.55402 12.7181 3.23892 12.6559 2.92082 12.6566V12.6566Z" fill="#1E1E1E"/>
<path d="M16.9723 5.74577e-06C16.6542 -0.000688042 16.3391 0.0614546 16.045 0.182866C15.751 0.304277 15.4839 0.482567 15.259 0.707498C15.034 0.93243 14.8557 1.19957 14.7343 1.49359C14.6129 1.78761 14.5508 2.10272 14.5515 2.42082V22.3925C14.5548 22.5101 14.603 22.622 14.6862 22.7052C14.7693 22.7883 14.8812 22.8365 14.9988 22.8398C16.1636 22.8378 17.2801 22.3741 18.1037 21.5505C18.9274 20.7268 19.391 19.6103 19.3931 18.4455V2.42082C19.3938 2.10272 19.3316 1.78761 19.2102 1.49359C19.0888 1.19957 18.9105 0.93243 18.6856 0.707498C18.4607 0.482567 18.1935 0.304277 17.8995 0.182866C17.6055 0.0614546 17.2904 -0.000688042 16.9723 5.74577e-06V5.74577e-06Z" fill="#1E1E1E"/>
<path d="M27.8333 21.8371V2.78061H30.7085V19.362H39.3435V21.8371H27.8333Z" fill="#1E1E1E"/>
<path d="M45.9397 22.1255C44.5316 22.1255 43.3189 21.8246 42.3015 21.2229C41.2904 20.615 40.5088 19.7621 39.9567 18.6641C39.4108 17.5599 39.1379 16.2665 39.1379 14.7839C39.1379 13.32 39.4108 12.0297 39.9567 10.9131C40.5088 9.79651 41.278 8.92495 42.2643 8.29842C43.2568 7.67189 44.4168 7.35862 45.7443 7.35862C46.5508 7.35862 47.3324 7.49199 48.0892 7.75873C48.846 8.02547 49.5252 8.44419 50.127 9.0149C50.7287 9.5856 51.2032 10.3269 51.5506 11.2388C51.898 12.1444 52.0717 13.2455 52.0717 14.542V15.5283H40.7104V13.444H49.3453C49.3453 12.712 49.1965 12.0638 48.8987 11.4993C48.6009 10.9286 48.1822 10.4789 47.6425 10.1501C47.1091 9.82132 46.4825 9.65693 45.7629 9.65693C44.9813 9.65693 44.299 9.84924 43.7159 10.2338C43.139 10.6122 42.6923 11.1085 42.376 11.7226C42.0658 12.3305 41.9107 12.9912 41.9107 13.7046V15.3329C41.9107 16.2882 42.0782 17.1009 42.4132 17.7708C42.7544 18.4408 43.2289 18.9525 43.8368 19.3061C44.4448 19.6535 45.155 19.8272 45.9677 19.8272C46.4949 19.8272 46.9757 19.7528 47.4099 19.6039C47.8441 19.4488 48.2194 19.2193 48.5358 18.9153C48.8522 18.6114 49.0941 18.2361 49.2616 17.7894L51.8949 18.264C51.684 19.0394 51.3056 19.7186 50.7597 20.3017C50.22 20.8786 49.5407 21.3284 48.7219 21.651C47.9093 21.9673 46.9819 22.1255 45.9397 22.1255Z" fill="#1E1E1E"/>
<path d="M58.2698 22.1534C57.3641 22.1534 56.5453 21.9859 55.8133 21.651C55.0813 21.3098 54.5013 20.8166 54.0733 20.1715C53.6514 19.5263 53.4405 18.7354 53.4405 17.7987C53.4405 16.9923 53.5956 16.3286 53.9058 15.8075C54.2159 15.2864 54.6346 14.8739 55.1619 14.5699C55.6892 14.266 56.2785 14.0364 56.9299 13.8814C57.5812 13.7263 58.245 13.6084 58.9211 13.5278C59.7772 13.4285 60.4719 13.3479 61.0054 13.2858C61.5389 13.2176 61.9266 13.1091 62.1685 12.9602C62.4104 12.8113 62.5314 12.5694 62.5314 12.2344V12.1693C62.5314 11.3566 62.3019 10.727 61.8428 10.2804C61.39 9.83373 60.7139 9.61041 59.8144 9.61041C58.8777 9.61041 58.1395 9.81822 57.5998 10.2338C57.0663 10.6433 56.6972 11.0992 56.4925 11.6017L53.8779 11.0061C54.188 10.1377 54.6409 9.43672 55.2364 8.90324C55.8381 8.36355 56.5298 7.97275 57.3114 7.73082C58.093 7.48269 58.9149 7.35862 59.7772 7.35862C60.3479 7.35862 60.9527 7.42686 61.5916 7.56333C62.2368 7.6936 62.8385 7.93553 63.3968 8.28911C63.9613 8.6427 64.4234 9.14827 64.7832 9.80581C65.143 10.4572 65.3229 11.3039 65.3229 12.3461V21.8371H62.6059V19.883H62.4942C62.3143 20.2428 62.0445 20.5964 61.6847 20.9438C61.3249 21.2912 60.8627 21.5796 60.2982 21.8091C59.7337 22.0387 59.0576 22.1534 58.2698 22.1534ZM58.8746 19.9202C59.6438 19.9202 60.3013 19.7683 60.8472 19.4643C61.3993 19.1603 61.818 18.7633 62.1034 18.2733C62.3949 17.777 62.5407 17.2466 62.5407 16.6821V14.8398C62.4415 14.939 62.2492 15.0321 61.9638 15.1189C61.6847 15.1996 61.3652 15.2709 61.0054 15.3329C60.6456 15.3888 60.2951 15.4415 59.954 15.4911C59.6128 15.5345 59.3274 15.5718 59.0979 15.6028C58.5582 15.671 58.0651 15.7858 57.6184 15.9471C57.178 16.1083 56.8244 16.341 56.5577 16.6449C56.2971 16.9427 56.1669 17.3397 56.1669 17.8359C56.1669 18.5245 56.4212 19.0456 56.9299 19.3992C57.4385 19.7466 58.0868 19.9202 58.8746 19.9202Z" fill="#1E1E1E"/>
<path d="M67.7184 21.8371V7.54472H70.4076V9.81512H70.5564C70.817 9.04591 71.276 8.44109 71.9336 8.00066C72.5973 7.55403 73.3479 7.33071 74.1853 7.33071C74.359 7.33071 74.5637 7.33691 74.7995 7.34932C75.0414 7.36172 75.2306 7.37723 75.3671 7.39584V10.057C75.2554 10.026 75.0569 9.99191 74.7716 9.95469C74.4862 9.91127 74.2009 9.88956 73.9155 9.88956C73.258 9.88956 72.6717 10.0291 72.1569 10.3083C71.6482 10.5812 71.245 10.9627 70.9472 11.4528C70.6495 11.9366 70.5006 12.4887 70.5006 13.1091V21.8371H67.7184Z" fill="#1E1E1E"/>
<path d="M79.5088 13.351V21.8371H76.7266V7.54472H79.3971V9.87095H79.5739C79.9027 9.11415 80.4176 8.50623 81.1185 8.04719C81.8257 7.58814 82.7159 7.35862 83.789 7.35862C84.7629 7.35862 85.6159 7.56333 86.3479 7.97275C87.0799 8.37596 87.6475 8.97768 88.0507 9.7779C88.4539 10.5781 88.6555 11.5675 88.6555 12.7462V21.8371H85.8733V13.0811C85.8733 12.0452 85.6035 11.2357 85.0638 10.6526C84.5241 10.0632 83.7828 9.76859 82.8399 9.76859C82.1948 9.76859 81.621 9.90817 81.1185 10.1873C80.6223 10.4665 80.2283 10.8759 79.9368 11.4156C79.6514 11.949 79.5088 12.5942 79.5088 13.351Z" fill="#1E1E1E"/>
<path d="M97.2071 21.8371H91.0379V2.78061H97.4025C99.2697 2.78061 100.873 3.16211 102.213 3.92511C103.553 4.68191 104.58 5.77059 105.293 7.19113C106.013 8.60548 106.372 10.3021 106.372 12.2809C106.372 14.266 106.01 15.9719 105.284 17.3986C104.564 18.8254 103.522 19.9233 102.157 20.6926C100.793 21.4556 99.1425 21.8371 97.2071 21.8371ZM93.9131 19.3247H97.0489C98.5004 19.3247 99.707 19.0518 100.668 18.5059C101.63 17.9538 102.35 17.1567 102.827 16.1145C103.305 15.0662 103.544 13.7883 103.544 12.2809C103.544 10.7859 103.305 9.51736 102.827 8.47521C102.356 7.43306 101.652 6.64214 100.715 6.10246C99.7783 5.56278 98.6152 5.29293 97.2257 5.29293H93.9131V19.3247Z" fill="#1E1E1E"/>
<path d="M112.05 22.1534C111.144 22.1534 110.325 21.9859 109.593 21.651C108.861 21.3098 108.281 20.8166 107.853 20.1715C107.431 19.5263 107.22 18.7354 107.22 17.7987C107.22 16.9923 107.375 16.3286 107.686 15.8075C107.996 15.2864 108.414 14.8739 108.942 14.5699C109.469 14.266 110.058 14.0364 110.71 13.8814C111.361 13.7263 112.025 13.6084 112.701 13.5278C113.557 13.4285 114.252 13.3479 114.785 13.2858C115.319 13.2176 115.706 13.1091 115.948 12.9602C116.19 12.8113 116.311 12.5694 116.311 12.2344V12.1693C116.311 11.3566 116.082 10.727 115.623 10.2804C115.17 9.83373 114.494 9.61041 113.594 9.61041C112.658 9.61041 111.919 9.81822 111.38 10.2338C110.846 10.6433 110.477 11.0992 110.272 11.6017L107.658 11.0061C107.968 10.1377 108.421 9.43672 109.016 8.90324C109.618 8.36355 110.31 7.97275 111.091 7.73082C111.873 7.48269 112.695 7.35862 113.557 7.35862C114.128 7.35862 114.733 7.42686 115.371 7.56333C116.017 7.6936 116.618 7.93553 117.177 8.28911C117.741 8.6427 118.203 9.14827 118.563 9.80581C118.923 10.4572 119.103 11.3039 119.103 12.3461V21.8371H116.386V19.883H116.274C116.094 20.2428 115.824 20.5964 115.465 20.9438C115.105 21.2912 114.643 21.5796 114.078 21.8091C113.514 22.0387 112.837 22.1534 112.05 22.1534ZM112.654 19.9202C113.424 19.9202 114.081 19.7683 114.627 19.4643C115.179 19.1603 115.598 18.7633 115.883 18.2733C116.175 17.777 116.321 17.2466 116.321 16.6821V14.8398C116.221 14.939 116.029 15.0321 115.744 15.1189C115.465 15.1996 115.145 15.2709 114.785 15.3329C114.425 15.3888 114.075 15.4415 113.734 15.4911C113.393 15.5345 113.107 15.5718 112.878 15.6028C112.338 15.671 111.845 15.7858 111.398 15.9471C110.958 16.1083 110.604 16.341 110.338 16.6449C110.077 16.9427 109.947 17.3397 109.947 17.8359C109.947 18.5245 110.201 19.0456 110.71 19.3992C111.218 19.7466 111.867 19.9202 112.654 19.9202Z" fill="#1E1E1E"/>
<path d="M131.684 11.0341L129.163 11.4807C129.057 11.1581 128.89 10.8511 128.66 10.5595C128.437 10.268 128.133 10.0291 127.748 9.84303C127.364 9.65693 126.883 9.56388 126.306 9.56388C125.518 9.56388 124.861 9.74068 124.333 10.0943C123.806 10.4416 123.542 10.8914 123.542 11.4435C123.542 11.9211 123.719 12.3057 124.073 12.5973C124.426 12.8888 124.997 13.1277 125.785 13.3138L128.055 13.8348C129.37 14.1388 130.35 14.6071 130.996 15.2399C131.641 15.8726 131.963 16.6945 131.963 17.7057C131.963 18.5617 131.715 19.3247 131.219 19.9947C130.729 20.6584 130.043 21.1795 129.163 21.5579C128.288 21.9363 127.274 22.1255 126.12 22.1255C124.519 22.1255 123.214 21.7843 122.202 21.102C121.191 20.4134 120.571 19.4364 120.341 18.1709L123.031 17.7615C123.198 18.4625 123.542 18.9929 124.063 19.3526C124.585 19.7062 125.264 19.883 126.101 19.883C127.013 19.883 127.742 19.6938 128.288 19.3154C128.834 18.9308 129.107 18.4625 129.107 17.9104C129.107 17.4637 128.939 17.0885 128.604 16.7845C128.275 16.4805 127.77 16.251 127.088 16.0959L124.668 15.5655C123.335 15.2616 122.348 14.7777 121.709 14.114C121.077 13.4502 120.76 12.6097 120.76 11.5924C120.76 10.7487 120.996 10.0105 121.467 9.37779C121.939 8.74505 122.59 8.25189 123.421 7.89831C124.253 7.53852 125.205 7.35862 126.278 7.35862C127.823 7.35862 129.038 7.6936 129.926 8.36355C130.813 9.0273 131.399 9.91747 131.684 11.0341Z" fill="#1E1E1E"/>
<path d="M136.232 13.351V21.8371H133.45V2.78061H136.195V9.87095H136.372C136.707 9.10174 137.219 8.49072 137.907 8.03788C138.596 7.58504 139.495 7.35862 140.606 7.35862C141.586 7.35862 142.442 7.56023 143.174 7.96344C143.912 8.36665 144.483 8.96837 144.886 9.76859C145.295 10.5626 145.5 11.5551 145.5 12.7462V21.8371H142.718V13.0811C142.718 12.0328 142.448 11.2202 141.908 10.6433C141.369 10.0601 140.618 9.76859 139.657 9.76859C138.999 9.76859 138.41 9.90817 137.889 10.1873C137.374 10.4665 136.967 10.8759 136.67 11.4156C136.378 11.949 136.232 12.5942 136.232 13.351Z" fill="#1E1E1E"/>
</svg>
